<?xml version="1.0" encoding="UTF-8" standalone="no"?>
<!DOCTYPE svg PUBLIC "-//W3C//DTD SVG 1.1//EN" "http://www.w3.org/Graphics/SVG/1.1/DTD/svg11.dtd">
<svg xmlns="http://www.w3.org/2000/svg" version="1.1" viewBox="0.00 0.00 255.00 238.00">
<g stroke-width="2.00" fill="none" stroke-linecap="butt">
<path stroke="#13181f" vector-effect="non-scaling-stroke" d="
  M 24.59 91.48
  Q 24.07 106.16 24.07 120.77
  C 24.07 140.51 24.14 154.98 24.02 171.18
  Q 23.93 183.80 25.63 188.91
  C 29.00 199.08 36.57 206.50 45.89 212.19
  C 50.91 215.26 57.61 216.87 62.79 216.89
  Q 148.56 217.20 184.07 217.33
  C 195.33 217.37 203.10 216.34 211.76 210.76
  Q 224.41 202.62 228.31 189.23
  Q 229.78 184.21 229.81 167.89
  Q 229.89 132.29 229.73 96.72"
/>
<path stroke="#161e26" vector-effect="non-scaling-stroke" d="
  M 229.73 96.72
  Q 229.49 74.98 229.75 53.25
  Q 229.79 50.23 229.53 48.75
  C 228.85 44.90 228.69 41.33 227.10 37.81
  Q 221.36 25.08 208.38 18.85
  Q 199.61 14.65 191.97 14.81
  C 182.61 15.01 168.54 14.33 157.56 14.24
  Q 123.07 13.96 93.99 13.86
  Q 88.10 13.84 77.51 14.40
  Q 74.56 14.55 61.06 14.85
  C 42.98 15.26 28.85 27.49 24.66 45.03
  Q 23.80 48.67 24.05 55.00
  Q 24.51 66.22 24.48 71.00
  Q 24.41 81.32 24.59 91.48"
/>
<path stroke="#16232e" vector-effect="non-scaling-stroke" d="
  M 229.73 96.72
  Q 215.56 97.27 201.71 99.80
  A 0.85 0.85 0.0 0 0 201.01 100.50
  Q 199.30 110.32 201.22 121.05
  A 0.45 0.45 0.0 0 1 200.80 121.58
  L 199.93 121.64
  A 0.58 0.58 0.0 0 1 199.32 121.10
  L 198.06 101.26
  A 0.46 0.46 0.0 0 0 197.57 100.83
  Q 197.26 100.85 196.99 101.07
  A 0.55 0.55 0.0 0 1 196.24 101.03
  Q 195.66 100.44 195.02 101.18
  Q 194.26 102.07 193.84 103.30"
/>
<path stroke="#2f696e" vector-effect="non-scaling-stroke" d="
  M 193.84 103.30
  L 193.76 81.64
  A 2.53 2.52 15.1 0 0 192.50 79.46
  L 186.74 76.13
  A 1.72 1.72 0.0 0 0 184.28 77.00
  L 173.59 104.53"
/>
<path stroke="#16232e" vector-effect="non-scaling-stroke" d="
  M 173.59 104.53
  Q 172.74 103.10 171.49 102.02"
/>
<path stroke="#286677" vector-effect="non-scaling-stroke" d="
  M 171.49 102.02
  L 181.75 74.75
  A 1.14 1.14 0.0 0 0 181.19 73.33
  Q 173.91 69.75 168.06 65.24
  Q 163.26 61.54 159.36 59.50
  C 151.05 55.15 140.39 47.74 129.97 42.64
  A 2.78 2.76 -45.2 0 0 127.49 42.66
  L 116.45 48.22
  A 0.96 0.96 0.0 0 0 116.20 49.75
  Q 119.86 53.48 128.41 61.89
  C 131.60 65.02 135.03 69.09 138.34 72.68"
/>
<path stroke="#16232e" vector-effect="non-scaling-stroke" d="
  M 138.34 72.68
  L 134.76 75.19"
/>
<path stroke="#235d78" vector-effect="non-scaling-stroke" d="
  M 134.76 75.19
  Q 125.18 62.98 112.79 52.40
  A 1.80 1.79 52.2 0 0 110.83 52.15
  C 106.47 54.30 102.20 56.12 97.81 58.84
  Q 90.73 63.23 83.49 67.46"
/>
<path stroke="#16232e" vector-effect="non-scaling-stroke" d="
  M 83.49 67.46
  C 86.45 64.99 86.39 62.17 82.36 61.04"
/>
<path stroke="#235d78" vector-effect="non-scaling-stroke" d="
  M 82.36 61.04
  Q 83.27 60.00 82.80 59.22
  A 0.74 0.73 -13.5 0 0 82.20 58.86
  Q 80.40 58.76 79.62 60.33
  Q 79.17 61.23 79.80 61.69
  Q 80.29 62.05 81.28 61.69"
/>
<path stroke="#16232e" vector-effect="non-scaling-stroke" d="
  M 81.28 61.69
  L 80.13 62.52
  A 1.36 1.35 27.4 0 1 79.30 62.78
  Q 69.98 62.58 61.89 67.28"
/>
<path stroke="#286677" vector-effect="non-scaling-stroke" d="
  M 61.89 67.28
  Q 57.28 63.73 53.63 68.78
  A 1.94 1.92 -33.2 0 0 53.30 70.32
  Q 54.13 74.23 58.15 74.11"
/>
<path stroke="#16232e" vector-effect="non-scaling-stroke" d="
  M 58.15 74.11
  C 47.99 82.18 37.62 89.10 24.59 91.48"
/>
<path stroke="#215770" vector-effect="non-scaling-stroke" d="
  M 81.28 61.69
  Q 82.01 61.45 82.36 61.04"
/>
<path stroke="#2c6366" vector-effect="non-scaling-stroke" d="
  M 173.59 104.53
  Q 172.53 107.40 172.09 108.32
  Q 167.27 118.36 158.74 133.95
  Q 154.39 141.90 151.08 149.40
  A 0.29 0.29 0.0 0 0 151.39 149.80
  L 192.98 142.59
  A 0.71 0.71 0.0 0 0 193.57 141.89
  L 193.84 103.30"
/>
<path stroke="#25606f" vector-effect="non-scaling-stroke" d="
  M 58.15 74.11
  Q 62.64 72.22 61.89 67.28"
/>
<path stroke="#215770" vector-effect="non-scaling-stroke" d="
  M 134.76 75.19
  L 137.29 78.73
  A 0.40 0.40 0.0 0 1 136.98 79.37
  Q 122.53 79.90 114.60 80.07
  C 108.68 80.20 101.39 80.68 97.25 81.48
  Q 87.02 83.46 67.62 87.60
  Q 63.45 88.49 59.35 89.04
  A 0.61 0.61 0.0 0 1 58.66 88.50
  C 58.33 85.22 58.60 82.17 61.69 80.20
  Q 70.37 74.66 78.72 70.47
  Q 80.71 69.47 83.49 67.46"
/>
<path stroke="#25606f" vector-effect="non-scaling-stroke" d="
  M 171.49 102.02
  L 166.40 111.86
  A 0.46 0.46 0.0 0 1 165.60 111.89
  Q 158.24 99.56 150.54 87.37
  C 147.32 82.27 142.49 77.52 138.34 72.68"
/>
<path stroke="#235d78" vector-effect="non-scaling-stroke" d="
  M 147.3570 26.4959
  A 2.67 2.03 -86.2 0 0 145.1545 29.0255
  A 2.67 2.03 -86.2 0 0 147.0030 31.8241
  A 2.67 2.03 -86.2 0 0 149.2055 29.2945
  A 2.67 2.03 -86.2 0 0 147.3570 26.4959"
/>
<path stroke="#235d78" vector-effect="non-scaling-stroke" d="
  M 116.1385 36.7289
  A 1.50 1.04 -53.2 0 0 114.4072 37.3070
  A 1.50 1.04 -53.2 0 0 114.3415 39.1311
  A 1.50 1.04 -53.2 0 0 116.0728 38.5530
  A 1.50 1.04 -53.2 0 0 116.1385 36.7289"
/>
<path stroke="#286677" vector-effect="non-scaling-stroke" d="
  M 169.9460 43.9148
  A 2.87 2.15 -37.2 0 0 166.3601 43.9375
  A 2.87 2.15 -37.2 0 0 165.3740 47.3852
  A 2.87 2.15 -37.2 0 0 168.9599 47.3625
  A 2.87 2.15 -37.2 0 0 169.9460 43.9148"
/>
<path stroke="#1f4970" vector-effect="non-scaling-stroke" d="
  M 151.60 46.55
  L 149.73 44.05
  A 0.29 0.29 0.0 0 0 149.32 43.99
  L 149.11 44.15
  A 2.05 1.81 -36.8 0 0 148.56 46.83
  L 148.60 46.89
  A 2.05 1.81 -36.8 0 0 151.33 47.11
  L 151.54 46.96
  A 0.29 0.29 0.0 0 0 151.60 46.55"
/>
<path stroke="#235d78" vector-effect="non-scaling-stroke" d="
  M 78.0017 44.1508
  A 2.86 1.72 -119.5 0 0 77.9130 47.4870
  A 2.86 1.72 -119.5 0 0 80.8183 49.1292
  A 2.86 1.72 -119.5 0 0 80.9070 45.7930
  A 2.86 1.72 -119.5 0 0 78.0017 44.1508"
/>
<path stroke="#1f4970" vector-effect="non-scaling-stroke" d="
  M 96.0130 50.6906
  A 1.76 1.03 -36.6 0 0 93.9859 50.9131
  A 1.76 1.03 -36.6 0 0 93.1870 52.7894
  A 1.76 1.03 -36.6 0 0 95.2141 52.5669
  A 1.76 1.03 -36.6 0 0 96.0130 50.6906"
/>
<path stroke="#235d78" vector-effect="non-scaling-stroke" d="
  M 193.40 70.51
  A 1.22 1.22 0.0 0 0 192.97 72.09
  L 195.60 77.32
  A 0.58 0.57 54.1 0 0 196.52 77.47
  Q 199.28 74.72 199.48 70.96
  A 1.97 1.97 0.0 0 0 197.42 68.88
  Q 195.76 68.96 193.40 70.51"
/>
<path stroke="#1f4970" vector-effect="non-scaling-stroke" d="
  M 201.4027 91.9371
  A 1.42 0.91 -75.2 0 0 200.1602 93.0775
  A 1.42 0.91 -75.2 0 0 200.6773 94.6829
  A 1.42 0.91 -75.2 0 0 201.9198 93.5425
  A 1.42 0.91 -75.2 0 0 201.4027 91.9371"
/>
<path stroke="#193767" vector-effect="non-scaling-stroke" d="
  M 101.59 85.17
  Q 101.11 84.92 100.50 85.02
  Q 92.09 86.46 80.19 89.02
  C 73.04 90.57 67.01 91.32 59.79 92.76
  A 1.20 1.19 84.6 0 0 58.83 93.92
  Q 58.79 120.60 58.97 148.75
  Q 59.00 153.04 60.43 154.98
  A 2.18 2.14 -2.6 0 0 61.10 155.58
  L 68.07 159.61
  A 0.71 0.71 0.0 0 0 69.10 159.20
  Q 71.26 152.17 74.03 144.02
  Q 76.33 137.24 78.53 132.99
  C 83.69 123.04 88.37 112.76 93.85 103.41
  C 97.23 97.64 99.68 90.95 101.84 85.89
  A 0.56 0.56 0.0 0 0 101.59 85.17"
/>
<path stroke="#215770" vector-effect="non-scaling-stroke" d="
  M 108.53 91.38
  L 112.29 90.35
  A 1.17 1.17 0.0 0 0 113.11 88.91
  L 113.08 88.80
  A 4.07 3.06 74.7 0 0 109.05 85.68
  L 108.93 85.71
  A 4.07 3.06 74.7 0 0 107.06 90.44
  L 107.09 90.56
  A 1.17 1.17 0.0 0 0 108.53 91.38"
/>
<path stroke="#215770" vector-effect="non-scaling-stroke" d="
  M 137.14 89.86
  L 142.59 92.41
  A 0.83 0.83 0.0 0 0 143.70 92.01
  L 143.77 91.85
  A 3.82 3.76 25.0 0 0 141.89 86.83
  L 141.86 86.81
  A 3.82 3.76 25.0 0 0 136.81 88.61
  L 136.73 88.76
  A 0.83 0.83 0.0 0 0 137.14 89.86"
/>
<path stroke="#1c4268" vector-effect="non-scaling-stroke" d="
  M 53.4886 91.5316
  A 1.71 1.19 -52.6 0 0 51.5046 92.1672
  A 1.71 1.19 -52.6 0 0 51.4114 94.2484
  A 1.71 1.19 -52.6 0 0 53.3954 93.6128
  A 1.71 1.19 -52.6 0 0 53.4886 91.5316"
/>
<path stroke="#25606f" vector-effect="non-scaling-stroke" d="
  M 51.5015 105.5582
  A 3.32 2.96 -17.2 0 0 47.4547 103.7124
  A 3.32 2.96 -17.2 0 0 45.1585 107.5218
  A 3.32 2.96 -17.2 0 0 49.2053 109.3676
  A 3.32 2.96 -17.2 0 0 51.5015 105.5582"
/>
<path stroke="#215770" vector-effect="non-scaling-stroke" d="
  M 162.11 114.01
  L 158.85 112.13
  A 1.23 1.23 0.0 0 0 157.17 112.58
  L 157.12 112.67
  A 4.86 3.05 -60.0 0 0 157.33 118.40
  L 157.43 118.46
  A 4.86 3.05 -60.0 0 0 162.50 115.78
  L 162.56 115.69
  A 1.23 1.23 0.0 0 0 162.11 114.01"
/>
<path stroke="#25606f" vector-effect="non-scaling-stroke" d="
  M 95.0218 115.2711
  A 2.48 1.96 -55.3 0 0 91.9986 116.1942
  A 2.48 1.96 -55.3 0 0 92.1982 119.3489
  A 2.48 1.96 -55.3 0 0 95.2214 118.4258
  A 2.48 1.96 -55.3 0 0 95.0218 115.2711"
/>
<path stroke="#1c4268" vector-effect="non-scaling-stroke" d="
  M 47.8399 120.6532
  A 1.37 0.85 -36.6 0 0 46.2332 120.7876
  A 1.37 0.85 -36.6 0 0 45.6401 122.2868
  A 1.37 0.85 -36.6 0 0 47.2468 122.1524
  A 1.37 0.85 -36.6 0 0 47.8399 120.6532"
/>
<path stroke="#31685d" vector-effect="non-scaling-stroke" d="
  M 211.4367 121.0457
  A 2.67 1.98 -37.2 0 0 208.1129 121.0829
  A 2.67 1.98 -37.2 0 0 207.1833 124.2743
  A 2.67 1.98 -37.2 0 0 210.5071 124.2371
  A 2.67 1.98 -37.2 0 0 211.4367 121.0457"
/>
<path stroke="#193767" vector-effect="non-scaling-stroke" d="
  M 147.77 138.61
  Q 148.31 138.89 148.89 137.68
  Q 151.43 132.37 154.65 127.44
  Q 156.58 124.49 155.42 123.88
  Q 154.25 123.28 152.95 126.55
  Q 150.77 132.03 147.89 137.16
  Q 147.23 138.33 147.77 138.61"
/>
<path stroke="#2c6366" vector-effect="non-scaling-stroke" d="
  M 99.98 179.92
  Q 111.36 187.83 123.93 194.06
  A 2.78 2.77 -39.1 0 0 125.91 194.26
  Q 131.27 192.78 134.69 190.55
  A 0.82 0.82 0.0 0 0 134.86 189.32
  L 112.46 164.21"
/>
<path stroke="#1c4268" vector-effect="non-scaling-stroke" d="
  M 112.46 164.21
  Q 98.46 145.60 87.11 125.06
  A 0.55 0.55 0.0 0 0 86.37 124.84
  Q 85.51 125.29 85.17 126.22
  Q 83.37 131.15 81.08 134.62
  A 1.82 1.82 0.0 0 0 80.90 134.98
  L 71.87 160.92
  A 1.81 1.81 0.0 0 0 72.63 163.06
  L 99.98 179.92"
/>
<path stroke="#3589a8" vector-effect="non-scaling-stroke" d="
  M 112.46 164.21
  L 99.98 179.92"
/>
<path stroke="#1c4268" vector-effect="non-scaling-stroke" d="
  M 49.4162 142.3648
  A 1.30 0.95 -62.7 0 0 47.9758 143.0843
  A 1.30 0.95 -62.7 0 0 48.2238 144.6752
  A 1.30 0.95 -62.7 0 0 49.6642 143.9557
  A 1.30 0.95 -62.7 0 0 49.4162 142.3648"
/>
<path stroke="#25606f" vector-effect="non-scaling-stroke" d="
  M 143.17 143.04
  L 138.88 145.61
  A 0.86 0.86 0.0 0 0 138.59 146.79
  L 138.66 146.91
  A 3.96 3.35 59.0 0 0 143.57 148.58
  L 143.59 148.57
  A 3.96 3.35 59.0 0 0 144.42 143.45
  L 144.35 143.33
  A 0.86 0.86 0.0 0 0 143.17 143.04"
/>
<path stroke="#215770" vector-effect="non-scaling-stroke" d="
  M 112.47 145.53
  L 109.07 143.62
  A 0.70 0.70 0.0 0 0 108.12 143.89
  L 108.05 144.01
  A 3.20 2.56 -60.7 0 0 108.71 148.06
  L 108.87 148.15
  A 3.20 2.56 -60.7 0 0 112.67 146.61
  L 112.74 146.49
  A 0.70 0.70 0.0 0 0 112.47 145.53"
/>
<path stroke="#31685d" vector-effect="non-scaling-stroke" d="
  M 192.72 146.10
  C 191.61 146.45 190.59 146.83 189.60 147.00
  Q 168.05 150.52 153.18 153.37
  Q 147.20 154.52 142.74 154.62
  Q 131.40 154.88 111.66 155.27
  A 0.51 0.51 0.0 0 0 111.20 155.97
  Q 111.74 157.33 112.82 158.64
  Q 116.37 162.94 125.77 174.52
  Q 129.00 178.49 137.52 187.59
  A 0.99 0.99 0.0 0 0 138.74 187.76
  L 191.56 156.12
  A 3.62 3.60 74.6 0 0 193.31 153.02
  L 193.31 146.53
  A 0.46 0.45 -8.6 0 0 192.72 146.10"
/>
<path stroke="#2c6366" vector-effect="non-scaling-stroke" d="
  M 199.9459 152.5483
  A 2.57 2.44 -105.9 0 0 198.3034 155.6885
  A 2.57 2.44 -105.9 0 0 201.3541 157.4917
  A 2.57 2.44 -105.9 0 0 202.9966 154.3515
  A 2.57 2.44 -105.9 0 0 199.9459 152.5483"
/>
<path stroke="#215770" vector-effect="non-scaling-stroke" d="
  M 50.8083 160.7957
  A 1.81 1.31 -142.8 0 0 51.4580 162.9335
  A 1.81 1.31 -142.8 0 0 53.6917 162.9843
  A 1.81 1.31 -142.8 0 0 53.0420 160.8465
  A 1.81 1.31 -142.8 0 0 50.8083 160.7957"
/>
<path stroke="#25606f" vector-effect="non-scaling-stroke" d="
  M 185.1078 168.8928
  A 1.68 1.10 -75.6 0 0 183.6246 170.2464
  A 1.68 1.10 -75.6 0 0 184.2722 172.1472
  A 1.68 1.10 -75.6 0 0 185.7554 170.7936
  A 1.68 1.10 -75.6 0 0 185.1078 168.8928"
/>
<path stroke="#193767" vector-effect="non-scaling-stroke" d="
  M 76.72 172.08
  A 0.25 0.25 0.0 0 0 76.35 172.35
  L 77.03 176.32
  A 0.76 0.76 0.0 0 0 78.34 176.69
  Q 79.35 175.57 79.64 174.40
  A 0.76 0.75 22.3 0 0 79.28 173.56
  L 76.72 172.08"
/>
<path stroke="#193767" vector-effect="non-scaling-stroke" d="
  M 68.8811 179.6711
  A 1.52 1.21 -132.6 0 0 69.0193 181.6090
  A 1.52 1.21 -132.6 0 0 70.9389 181.9089
  A 1.52 1.21 -132.6 0 0 70.8007 179.9710
  A 1.52 1.21 -132.6 0 0 68.8811 179.6711"
/>
<path stroke="#1c4268" vector-effect="non-scaling-stroke" d="
  M 92.0046 181.1780
  A 1.95 1.09 -147.0 0 0 93.0463 183.1542
  A 1.95 1.09 -147.0 0 0 95.2754 183.3020
  A 1.95 1.09 -147.0 0 0 94.2337 181.3258
  A 1.95 1.09 -147.0 0 0 92.0046 181.1780"
/>
<path stroke="#2c6366" vector-effect="non-scaling-stroke" d="
  M 165.8561 181.6699
  A 2.78 1.36 -63.6 0 0 163.4018 183.5553
  A 2.78 1.36 -63.6 0 0 163.3839 186.6501
  A 2.78 1.36 -63.6 0 0 165.8382 184.7647
  A 2.78 1.36 -63.6 0 0 165.8561 181.6699"
/>
<path stroke="#193767" vector-effect="non-scaling-stroke" d="
  M 94.4112 186.7235
  A 1.16 0.72 -118.8 0 0 94.3391 188.0869
  A 1.16 0.72 -118.8 0 0 95.5288 188.7565
  A 1.16 0.72 -118.8 0 0 95.6009 187.3931
  A 1.16 0.72 -118.8 0 0 94.4112 186.7235"
/>
<path stroke="#1c4268" vector-effect="non-scaling-stroke" d="
  M 115.03 198.98
  L 112.13 193.22
  A 0.58 0.57 -21.0 0 0 111.47 192.93
  Q 110.29 193.23 111.29 194.54
  Q 112.88 196.63 113.75 199.27
  A 0.03 0.02 0.0 0 0 113.78 199.29
  L 114.71 199.43
  A 0.31 0.31 0.0 0 0 115.03 198.98"
/>
<path stroke="#215770" vector-effect="non-scaling-stroke" d="
  M 139.81 196.44
  L 137.14 198.21
  A 0.28 0.28 0.0 0 0 137.06 198.60
  L 137.15 198.74
  A 2.01 1.88 56.5 0 0 139.83 199.38
  A 2.01 1.88 56.5 0 0 140.29 196.66
  L 140.19 196.52
  A 0.28 0.28 0.0 0 0 139.81 196.44"
/>
<path stroke="#327ea7" vector-effect="non-scaling-stroke" d="
  M 65.4052 105.9301
  A 2.06 1.49 -51.4 0 0 62.9555 106.6104
  A 2.06 1.49 -51.4 0 0 62.8348 109.1499
  A 2.06 1.49 -51.4 0 0 65.2845 108.4696
  A 2.06 1.49 -51.4 0 0 65.4052 105.9301"
/>
</g>
<path fill="#131317" d="
  M 255.00 0.00
  L 255.00 238.00
  L 0.00 238.00
  L 0.00 0.00
  L 255.00 0.00
  Z
  M 24.59 91.48
  Q 24.07 106.16 24.07 120.77
  C 24.07 140.51 24.14 154.98 24.02 171.18
  Q 23.93 183.80 25.63 188.91
  C 29.00 199.08 36.57 206.50 45.89 212.19
  C 50.91 215.26 57.61 216.87 62.79 216.89
  Q 148.56 217.20 184.07 217.33
  C 195.33 217.37 203.10 216.34 211.76 210.76
  Q 224.41 202.62 228.31 189.23
  Q 229.78 184.21 229.81 167.89
  Q 229.89 132.29 229.73 96.72
  Q 229.49 74.98 229.75 53.25
  Q 229.79 50.23 229.53 48.75
  C 228.85 44.90 228.69 41.33 227.10 37.81
  Q 221.36 25.08 208.38 18.85
  Q 199.61 14.65 191.97 14.81
  C 182.61 15.01 168.54 14.33 157.56 14.24
  Q 123.07 13.96 93.99 13.86
  Q 88.10 13.84 77.51 14.40
  Q 74.56 14.55 61.06 14.85
  C 42.98 15.26 28.85 27.49 24.66 45.03
  Q 23.80 48.67 24.05 55.00
  Q 24.51 66.22 24.48 71.00
  Q 24.41 81.32 24.59 91.48
  Z"
/>
<path fill="#182935" d="
  M 229.73 96.72
  Q 215.56 97.27 201.71 99.80
  A 0.85 0.85 0.0 0 0 201.01 100.50
  Q 199.30 110.32 201.22 121.05
  A 0.45 0.45 0.0 0 1 200.80 121.58
  L 199.93 121.64
  A 0.58 0.58 0.0 0 1 199.32 121.10
  L 198.06 101.26
  A 0.46 0.46 0.0 0 0 197.57 100.83
  Q 197.26 100.85 196.99 101.07
  A 0.55 0.55 0.0 0 1 196.24 101.03
  Q 195.66 100.44 195.02 101.18
  Q 194.26 102.07 193.84 103.30
  L 193.76 81.64
  A 2.53 2.52 15.1 0 0 192.50 79.46
  L 186.74 76.13
  A 1.72 1.72 0.0 0 0 184.28 77.00
  L 173.59 104.53
  Q 172.74 103.10 171.49 102.02
  L 181.75 74.75
  A 1.14 1.14 0.0 0 0 181.19 73.33
  Q 173.91 69.75 168.06 65.24
  Q 163.26 61.54 159.36 59.50
  C 151.05 55.15 140.39 47.74 129.97 42.64
  A 2.78 2.76 -45.2 0 0 127.49 42.66
  L 116.45 48.22
  A 0.96 0.96 0.0 0 0 116.20 49.75
  Q 119.86 53.48 128.41 61.89
  C 131.60 65.02 135.03 69.09 138.34 72.68
  L 134.76 75.19
  Q 125.18 62.98 112.79 52.40
  A 1.80 1.79 52.2 0 0 110.83 52.15
  C 106.47 54.30 102.20 56.12 97.81 58.84
  Q 90.73 63.23 83.49 67.46
  C 86.45 64.99 86.39 62.17 82.36 61.04
  Q 83.27 60.00 82.80 59.22
  A 0.74 0.73 -13.5 0 0 82.20 58.86
  Q 80.40 58.76 79.62 60.33
  Q 79.17 61.23 79.80 61.69
  Q 80.29 62.05 81.28 61.69
  L 80.13 62.52
  A 1.36 1.35 27.4 0 1 79.30 62.78
  Q 69.98 62.58 61.89 67.28
  Q 57.28 63.73 53.63 68.78
  A 1.94 1.92 -33.2 0 0 53.30 70.32
  Q 54.13 74.23 58.15 74.11
  C 47.99 82.18 37.62 89.10 24.59 91.48
  Q 24.41 81.32 24.48 71.00
  Q 24.51 66.22 24.05 55.00
  Q 23.80 48.67 24.66 45.03
  C 28.85 27.49 42.98 15.26 61.06 14.85
  Q 74.56 14.55 77.51 14.40
  Q 88.10 13.84 93.99 13.86
  Q 123.07 13.96 157.56 14.24
  C 168.54 14.33 182.61 15.01 191.97 14.81
  Q 199.61 14.65 208.38 18.85
  Q 221.36 25.08 227.10 37.81
  C 228.69 41.33 228.85 44.90 229.53 48.75
  Q 229.79 50.23 229.75 53.25
  Q 229.49 74.98 229.73 96.72
  Z
  M 147.3570 26.4959
  A 2.67 2.03 -86.2 0 0 145.1545 29.0255
  A 2.67 2.03 -86.2 0 0 147.0030 31.8241
  A 2.67 2.03 -86.2 0 0 149.2055 29.2945
  A 2.67 2.03 -86.2 0 0 147.3570 26.4959
  Z
  M 116.1385 36.7289
  A 1.50 1.04 -53.2 0 0 114.4072 37.3070
  A 1.50 1.04 -53.2 0 0 114.3415 39.1311
  A 1.50 1.04 -53.2 0 0 116.0728 38.5530
  A 1.50 1.04 -53.2 0 0 116.1385 36.7289
  Z
  M 169.9460 43.9148
  A 2.87 2.15 -37.2 0 0 166.3601 43.9375
  A 2.87 2.15 -37.2 0 0 165.3740 47.3852
  A 2.87 2.15 -37.2 0 0 168.9599 47.3625
  A 2.87 2.15 -37.2 0 0 169.9460 43.9148
  Z
  M 151.60 46.55
  L 149.73 44.05
  A 0.29 0.29 0.0 0 0 149.32 43.99
  L 149.11 44.15
  A 2.05 1.81 -36.8 0 0 148.56 46.83
  L 148.60 46.89
  A 2.05 1.81 -36.8 0 0 151.33 47.11
  L 151.54 46.96
  A 0.29 0.29 0.0 0 0 151.60 46.55
  Z
  M 78.0017 44.1508
  A 2.86 1.72 -119.5 0 0 77.9130 47.4870
  A 2.86 1.72 -119.5 0 0 80.8183 49.1292
  A 2.86 1.72 -119.5 0 0 80.9070 45.7930
  A 2.86 1.72 -119.5 0 0 78.0017 44.1508
  Z
  M 96.0130 50.6906
  A 1.76 1.03 -36.6 0 0 93.9859 50.9131
  A 1.76 1.03 -36.6 0 0 93.1870 52.7894
  A 1.76 1.03 -36.6 0 0 95.2141 52.5669
  A 1.76 1.03 -36.6 0 0 96.0130 50.6906
  Z
  M 193.40 70.51
  A 1.22 1.22 0.0 0 0 192.97 72.09
  L 195.60 77.32
  A 0.58 0.57 54.1 0 0 196.52 77.47
  Q 199.28 74.72 199.48 70.96
  A 1.97 1.97 0.0 0 0 197.42 68.88
  Q 195.76 68.96 193.40 70.51
  Z
  M 201.4027 91.9371
  A 1.42 0.91 -75.2 0 0 200.1602 93.0775
  A 1.42 0.91 -75.2 0 0 200.6773 94.6829
  A 1.42 0.91 -75.2 0 0 201.9198 93.5425
  A 1.42 0.91 -75.2 0 0 201.4027 91.9371
  Z"
/>
<ellipse fill="#2e91ba" cx="0.00" cy="0.00" transform="translate(147.18,29.16) rotate(-86.2)" rx="2.67" ry="2.03"/>
<ellipse fill="#2e91ba" cx="0.00" cy="0.00" transform="translate(115.24,37.93) rotate(-53.2)" rx="1.50" ry="1.04"/>
<path fill="#37a3b8" d="
  M 171.49 102.02
  L 166.40 111.86
  A 0.46 0.46 0.0 0 1 165.60 111.89
  Q 158.24 99.56 150.54 87.37
  C 147.32 82.27 142.49 77.52 138.34 72.68
  C 135.03 69.09 131.60 65.02 128.41 61.89
  Q 119.86 53.48 116.20 49.75
  A 0.96 0.96 0.0 0 1 116.45 48.22
  L 127.49 42.66
  A 2.78 2.76 -45.2 0 1 129.97 42.64
  C 140.39 47.74 151.05 55.15 159.36 59.50
  Q 163.26 61.54 168.06 65.24
  Q 173.91 69.75 181.19 73.33
  A 1.14 1.14 0.0 0 1 181.75 74.75
  L 171.49 102.02
  Z"
/>
<ellipse fill="#37a3b8" cx="0.00" cy="0.00" transform="translate(167.66,45.65) rotate(-37.2)" rx="2.87" ry="2.15"/>
<path fill="#2568aa" d="
  M 151.60 46.55
  A 0.29 0.29 0.0 0 1 151.54 46.96
  L 151.33 47.11
  A 2.05 1.81 -36.8 0 1 148.60 46.89
  L 148.56 46.83
  A 2.05 1.81 -36.8 0 1 149.11 44.15
  L 149.32 43.99
  A 0.29 0.29 0.0 0 1 149.73 44.05
  L 151.60 46.55
  Z"
/>
<ellipse fill="#2e91ba" cx="0.00" cy="0.00" transform="translate(79.41,46.64) rotate(-119.5)" rx="2.86" ry="1.72"/>
<ellipse fill="#2568aa" cx="0.00" cy="0.00" transform="translate(94.60,51.74) rotate(-36.6)" rx="1.76" ry="1.03"/>
<path fill="#2e91ba" d="
  M 134.76 75.19
  L 137.29 78.73
  A 0.40 0.40 0.0 0 1 136.98 79.37
  Q 122.53 79.90 114.60 80.07
  C 108.68 80.20 101.39 80.68 97.25 81.48
  Q 87.02 83.46 67.62 87.60
  Q 63.45 88.49 59.35 89.04
  A 0.61 0.61 0.0 0 1 58.66 88.50
  C 58.33 85.22 58.60 82.17 61.69 80.20
  Q 70.37 74.66 78.72 70.47
  Q 80.71 69.47 83.49 67.46
  Q 90.73 63.23 97.81 58.84
  C 102.20 56.12 106.47 54.30 110.83 52.15
  A 1.80 1.79 52.2 0 1 112.79 52.40
  Q 125.18 62.98 134.76 75.19
  Z"
/>
<path fill="#131c26" d="
  M 81.28 61.69
  Q 82.01 61.45 82.36 61.04
  C 86.39 62.17 86.45 64.99 83.49 67.46
  Q 80.71 69.47 78.72 70.47
  Q 70.37 74.66 61.69 80.20
  C 58.60 82.17 58.33 85.22 58.66 88.50
  A 0.61 0.61 0.0 0 0 59.35 89.04
  Q 63.45 88.49 67.62 87.60
  Q 87.02 83.46 97.25 81.48
  C 101.39 80.68 108.68 80.20 114.60 80.07
  Q 122.53 79.90 136.98 79.37
  A 0.40 0.40 0.0 0 0 137.29 78.73
  L 134.76 75.19
  L 138.34 72.68
  C 142.49 77.52 147.32 82.27 150.54 87.37
  Q 158.24 99.56 165.60 111.89
  A 0.46 0.46 0.0 0 0 166.40 111.86
  L 171.49 102.02
  Q 172.74 103.10 173.59 104.53
  Q 172.53 107.40 172.09 108.32
  Q 167.27 118.36 158.74 133.95
  Q 154.39 141.90 151.08 149.40
  A 0.29 0.29 0.0 0 0 151.39 149.80
  L 192.98 142.59
  A 0.71 0.71 0.0 0 0 193.57 141.89
  L 193.84 103.30
  Q 194.26 102.07 195.02 101.18
  Q 195.66 100.44 196.24 101.03
  A 0.55 0.55 0.0 0 0 196.99 101.07
  Q 197.26 100.85 197.57 100.83
  A 0.46 0.46 0.0 0 1 198.06 101.26
  L 199.32 121.10
  A 0.58 0.58 0.0 0 0 199.93 121.64
  L 200.80 121.58
  A 0.45 0.45 0.0 0 0 201.22 121.05
  Q 199.30 110.32 201.01 100.50
  A 0.85 0.85 0.0 0 1 201.71 99.80
  Q 215.56 97.27 229.73 96.72
  Q 229.89 132.29 229.81 167.89
  Q 229.78 184.21 228.31 189.23
  Q 224.41 202.62 211.76 210.76
  C 203.10 216.34 195.33 217.37 184.07 217.33
  Q 148.56 217.20 62.79 216.89
  C 57.61 216.87 50.91 215.26 45.89 212.19
  C 36.57 206.50 29.00 199.08 25.63 188.91
  Q 23.93 183.80 24.02 171.18
  C 24.14 154.98 24.07 140.51 24.07 120.77
  Q 24.07 106.16 24.59 91.48
  C 37.62 89.10 47.99 82.18 58.15 74.11
  Q 62.64 72.22 61.89 67.28
  Q 69.98 62.58 79.30 62.78
  A 1.36 1.35 27.4 0 0 80.13 62.52
  L 81.28 61.69
  Z
  M 101.59 85.17
  Q 101.11 84.92 100.50 85.02
  Q 92.09 86.46 80.19 89.02
  C 73.04 90.57 67.01 91.32 59.79 92.76
  A 1.20 1.19 84.6 0 0 58.83 93.92
  Q 58.79 120.60 58.97 148.75
  Q 59.00 153.04 60.43 154.98
  A 2.18 2.14 -2.6 0 0 61.10 155.58
  L 68.07 159.61
  A 0.71 0.71 0.0 0 0 69.10 159.20
  Q 71.26 152.17 74.03 144.02
  Q 76.33 137.24 78.53 132.99
  C 83.69 123.04 88.37 112.76 93.85 103.41
  C 97.23 97.64 99.68 90.95 101.84 85.89
  A 0.56 0.56 0.0 0 0 101.59 85.17
  Z
  M 108.53 91.38
  L 112.29 90.35
  A 1.17 1.17 0.0 0 0 113.11 88.91
  L 113.08 88.80
  A 4.07 3.06 74.7 0 0 109.05 85.68
  L 108.93 85.71
  A 4.07 3.06 74.7 0 0 107.06 90.44
  L 107.09 90.56
  A 1.17 1.17 0.0 0 0 108.53 91.38
  Z
  M 137.14 89.86
  L 142.59 92.41
  A 0.83 0.83 0.0 0 0 143.70 92.01
  L 143.77 91.85
  A 3.82 3.76 25.0 0 0 141.89 86.83
  L 141.86 86.81
  A 3.82 3.76 25.0 0 0 136.81 88.61
  L 136.73 88.76
  A 0.83 0.83 0.0 0 0 137.14 89.86
  Z
  M 53.4886 91.5316
  A 1.71 1.19 -52.6 0 0 51.5046 92.1672
  A 1.71 1.19 -52.6 0 0 51.4114 94.2484
  A 1.71 1.19 -52.6 0 0 53.3954 93.6128
  A 1.71 1.19 -52.6 0 0 53.4886 91.5316
  Z
  M 51.5015 105.5582
  A 3.32 2.96 -17.2 0 0 47.4547 103.7124
  A 3.32 2.96 -17.2 0 0 45.1585 107.5218
  A 3.32 2.96 -17.2 0 0 49.2053 109.3676
  A 3.32 2.96 -17.2 0 0 51.5015 105.5582
  Z
  M 162.11 114.01
  L 158.85 112.13
  A 1.23 1.23 0.0 0 0 157.17 112.58
  L 157.12 112.67
  A 4.86 3.05 -60.0 0 0 157.33 118.40
  L 157.43 118.46
  A 4.86 3.05 -60.0 0 0 162.50 115.78
  L 162.56 115.69
  A 1.23 1.23 0.0 0 0 162.11 114.01
  Z
  M 95.0218 115.2711
  A 2.48 1.96 -55.3 0 0 91.9986 116.1942
  A 2.48 1.96 -55.3 0 0 92.1982 119.3489
  A 2.48 1.96 -55.3 0 0 95.2214 118.4258
  A 2.48 1.96 -55.3 0 0 95.0218 115.2711
  Z
  M 47.8399 120.6532
  A 1.37 0.85 -36.6 0 0 46.2332 120.7876
  A 1.37 0.85 -36.6 0 0 45.6401 122.2868
  A 1.37 0.85 -36.6 0 0 47.2468 122.1524
  A 1.37 0.85 -36.6 0 0 47.8399 120.6532
  Z
  M 211.4367 121.0457
  A 2.67 1.98 -37.2 0 0 208.1129 121.0829
  A 2.67 1.98 -37.2 0 0 207.1833 124.2743
  A 2.67 1.98 -37.2 0 0 210.5071 124.2371
  A 2.67 1.98 -37.2 0 0 211.4367 121.0457
  Z
  M 147.77 138.61
  Q 148.31 138.89 148.89 137.68
  Q 151.43 132.37 154.65 127.44
  Q 156.58 124.49 155.42 123.88
  Q 154.25 123.28 152.95 126.55
  Q 150.77 132.03 147.89 137.16
  Q 147.23 138.33 147.77 138.61
  Z
  M 99.98 179.92
  Q 111.36 187.83 123.93 194.06
  A 2.78 2.77 -39.1 0 0 125.91 194.26
  Q 131.27 192.78 134.69 190.55
  A 0.82 0.82 0.0 0 0 134.86 189.32
  L 112.46 164.21
  Q 98.46 145.60 87.11 125.06
  A 0.55 0.55 0.0 0 0 86.37 124.84
  Q 85.51 125.29 85.17 126.22
  Q 83.37 131.15 81.08 134.62
  A 1.82 1.82 0.0 0 0 80.90 134.98
  L 71.87 160.92
  A 1.81 1.81 0.0 0 0 72.63 163.06
  L 99.98 179.92
  Z
  M 49.4162 142.3648
  A 1.30 0.95 -62.7 0 0 47.9758 143.0843
  A 1.30 0.95 -62.7 0 0 48.2238 144.6752
  A 1.30 0.95 -62.7 0 0 49.6642 143.9557
  A 1.30 0.95 -62.7 0 0 49.4162 142.3648
  Z
  M 143.17 143.04
  L 138.88 145.61
  A 0.86 0.86 0.0 0 0 138.59 146.79
  L 138.66 146.91
  A 3.96 3.35 59.0 0 0 143.57 148.58
  L 143.59 148.57
  A 3.96 3.35 59.0 0 0 144.42 143.45
  L 144.35 143.33
  A 0.86 0.86 0.0 0 0 143.17 143.04
  Z
  M 112.47 145.53
  L 109.07 143.62
  A 0.70 0.70 0.0 0 0 108.12 143.89
  L 108.05 144.01
  A 3.20 2.56 -60.7 0 0 108.71 148.06
  L 108.87 148.15
  A 3.20 2.56 -60.7 0 0 112.67 146.61
  L 112.74 146.49
  A 0.70 0.70 0.0 0 0 112.47 145.53
  Z
  M 192.72 146.10
  C 191.61 146.45 190.59 146.83 189.60 147.00
  Q 168.05 150.52 153.18 153.37
  Q 147.20 154.52 142.74 154.62
  Q 131.40 154.88 111.66 155.27
  A 0.51 0.51 0.0 0 0 111.20 155.97
  Q 111.74 157.33 112.82 158.64
  Q 116.37 162.94 125.77 174.52
  Q 129.00 178.49 137.52 187.59
  A 0.99 0.99 0.0 0 0 138.74 187.76
  L 191.56 156.12
  A 3.62 3.60 74.6 0 0 193.31 153.02
  L 193.31 146.53
  A 0.46 0.45 -8.6 0 0 192.72 146.10
  Z
  M 199.9459 152.5483
  A 2.57 2.44 -105.9 0 0 198.3034 155.6885
  A 2.57 2.44 -105.9 0 0 201.3541 157.4917
  A 2.57 2.44 -105.9 0 0 202.9966 154.3515
  A 2.57 2.44 -105.9 0 0 199.9459 152.5483
  Z
  M 50.8083 160.7957
  A 1.81 1.31 -142.8 0 0 51.4580 162.9335
  A 1.81 1.31 -142.8 0 0 53.6917 162.9843
  A 1.81 1.31 -142.8 0 0 53.0420 160.8465
  A 1.81 1.31 -142.8 0 0 50.8083 160.7957
  Z
  M 185.1078 168.8928
  A 1.68 1.10 -75.6 0 0 183.6246 170.2464
  A 1.68 1.10 -75.6 0 0 184.2722 172.1472
  A 1.68 1.10 -75.6 0 0 185.7554 170.7936
  A 1.68 1.10 -75.6 0 0 185.1078 168.8928
  Z
  M 76.72 172.08
  A 0.25 0.25 0.0 0 0 76.35 172.35
  L 77.03 176.32
  A 0.76 0.76 0.0 0 0 78.34 176.69
  Q 79.35 175.57 79.64 174.40
  A 0.76 0.75 22.3 0 0 79.28 173.56
  L 76.72 172.08
  Z
  M 68.8811 179.6711
  A 1.52 1.21 -132.6 0 0 69.0193 181.6090
  A 1.52 1.21 -132.6 0 0 70.9389 181.9089
  A 1.52 1.21 -132.6 0 0 70.8007 179.9710
  A 1.52 1.21 -132.6 0 0 68.8811 179.6711
  Z
  M 92.0046 181.1780
  A 1.95 1.09 -147.0 0 0 93.0463 183.1542
  A 1.95 1.09 -147.0 0 0 95.2754 183.3020
  A 1.95 1.09 -147.0 0 0 94.2337 181.3258
  A 1.95 1.09 -147.0 0 0 92.0046 181.1780
  Z
  M 165.8561 181.6699
  A 2.78 1.36 -63.6 0 0 163.4018 183.5553
  A 2.78 1.36 -63.6 0 0 163.3839 186.6501
  A 2.78 1.36 -63.6 0 0 165.8382 184.7647
  A 2.78 1.36 -63.6 0 0 165.8561 181.6699
  Z
  M 94.4112 186.7235
  A 1.16 0.72 -118.8 0 0 94.3391 188.0869
  A 1.16 0.72 -118.8 0 0 95.5288 188.7565
  A 1.16 0.72 -118.8 0 0 95.6009 187.3931
  A 1.16 0.72 -118.8 0 0 94.4112 186.7235
  Z
  M 115.03 198.98
  L 112.13 193.22
  A 0.58 0.57 -21.0 0 0 111.47 192.93
  Q 110.29 193.23 111.29 194.54
  Q 112.88 196.63 113.75 199.27
  A 0.03 0.02 0.0 0 0 113.78 199.29
  L 114.71 199.43
  A 0.31 0.31 0.0 0 0 115.03 198.98
  Z
  M 139.81 196.44
  L 137.14 198.21
  A 0.28 0.28 0.0 0 0 137.06 198.60
  L 137.15 198.74
  A 2.01 1.88 56.5 0 0 139.83 199.38
  A 2.01 1.88 56.5 0 0 140.29 196.66
  L 140.19 196.52
  A 0.28 0.28 0.0 0 0 139.81 196.44
  Z"
/>
<path fill="#2e91ba" d="
  M 82.36 61.04
  Q 82.01 61.45 81.28 61.69
  Q 80.29 62.05 79.80 61.69
  Q 79.17 61.23 79.62 60.33
  Q 80.40 58.76 82.20 58.86
  A 0.74 0.73 -13.5 0 1 82.80 59.22
  Q 83.27 60.00 82.36 61.04
  Z"
/>
<path fill="#37a3b8" d="
  M 61.89 67.28
  Q 62.64 72.22 58.15 74.11
  Q 54.13 74.23 53.30 70.32
  A 1.94 1.92 -33.2 0 1 53.63 68.78
  Q 57.28 63.73 61.89 67.28
  Z"
/>
<path fill="#2e91ba" d="
  M 193.40 70.51
  Q 195.76 68.96 197.42 68.88
  A 1.97 1.97 0.0 0 1 199.48 70.96
  Q 199.28 74.72 196.52 77.47
  A 0.58 0.57 54.1 0 1 195.60 77.32
  L 192.97 72.09
  A 1.22 1.22 0.0 0 1 193.40 70.51
  Z"
/>
<path fill="#45a9a6" d="
  M 193.84 103.30
  L 193.57 141.89
  A 0.71 0.71 0.0 0 1 192.98 142.59
  L 151.39 149.80
  A 0.29 0.29 0.0 0 1 151.08 149.40
  Q 154.39 141.90 158.74 133.95
  Q 167.27 118.36 172.09 108.32
  Q 172.53 107.40 173.59 104.53
  L 184.28 77.00
  A 1.72 1.72 0.0 0 1 186.74 76.13
  L 192.50 79.46
  A 2.53 2.52 15.1 0 1 193.76 81.64
  L 193.84 103.30
  Z"
/>
<path fill="#1e52a7" d="
  M 101.59 85.17
  A 0.56 0.56 0.0 0 1 101.84 85.89
  C 99.68 90.95 97.23 97.64 93.85 103.41
  C 88.37 112.76 83.69 123.04 78.53 132.99
  Q 76.33 137.24 74.03 144.02
  Q 71.26 152.17 69.10 159.20
  A 0.71 0.71 0.0 0 1 68.07 159.61
  L 61.10 155.58
  A 2.18 2.14 -2.6 0 1 60.43 154.98
  Q 59.00 153.04 58.97 148.75
  Q 58.79 120.60 58.83 93.92
  A 1.20 1.19 84.6 0 1 59.79 92.76
  C 67.01 91.32 73.04 90.57 80.19 89.02
  Q 92.09 86.46 100.50 85.02
  Q 101.11 84.92 101.59 85.17
  Z
  M 65.4052 105.9301
  A 2.06 1.49 -51.4 0 0 62.9555 106.6104
  A 2.06 1.49 -51.4 0 0 62.8348 109.1499
  A 2.06 1.49 -51.4 0 0 65.2845 108.4696
  A 2.06 1.49 -51.4 0 0 65.4052 105.9301
  Z"
/>
<path fill="#2e91ba" d="
  M 108.53 91.38
  A 1.17 1.17 0.0 0 1 107.09 90.56
  L 107.06 90.44
  A 4.07 3.06 74.7 0 1 108.93 85.71
  L 109.05 85.68
  A 4.07 3.06 74.7 0 1 113.08 88.80
  L 113.11 88.91
  A 1.17 1.17 0.0 0 1 112.29 90.35
  L 108.53 91.38
  Z"
/>
<path fill="#2e91ba" d="
  M 137.14 89.86
  A 0.83 0.83 0.0 0 1 136.73 88.76
  L 136.81 88.61
  A 3.82 3.76 25.0 0 1 141.86 86.81
  L 141.89 86.83
  A 3.82 3.76 25.0 0 1 143.77 91.85
  L 143.70 92.01
  A 0.83 0.83 0.0 0 1 142.59 92.41
  L 137.14 89.86
  Z"
/>
<ellipse fill="#2568aa" cx="0.00" cy="0.00" transform="translate(52.45,92.89) rotate(-52.6)" rx="1.71" ry="1.19"/>
<ellipse fill="#2568aa" cx="0.00" cy="0.00" transform="translate(201.04,93.31) rotate(-75.2)" rx="1.42" ry="0.91"/>
<ellipse fill="#37a3b8" cx="0.00" cy="0.00" transform="translate(48.33,106.54) rotate(-17.2)" rx="3.32" ry="2.96"/>
<ellipse fill="#45a9a6" cx="0.00" cy="0.00" transform="translate(64.12,107.54) rotate(-51.4)" rx="2.06" ry="1.49"/>
<path fill="#2e91ba" d="
  M 162.11 114.01
  A 1.23 1.23 0.0 0 1 162.56 115.69
  L 162.50 115.78
  A 4.86 3.05 -60.0 0 1 157.43 118.46
  L 157.33 118.40
  A 4.86 3.05 -60.0 0 1 157.12 112.67
  L 157.17 112.58
  A 1.23 1.23 0.0 0 1 158.85 112.13
  L 162.11 114.01
  Z"
/>
<ellipse fill="#37a3b8" cx="0.00" cy="0.00" transform="translate(93.61,117.31) rotate(-55.3)" rx="2.48" ry="1.96"/>
<ellipse fill="#2568aa" cx="0.00" cy="0.00" transform="translate(46.74,121.47) rotate(-36.6)" rx="1.37" ry="0.85"/>
<ellipse fill="#4eb494" cx="0.00" cy="0.00" transform="translate(209.31,122.66) rotate(-37.2)" rx="2.67" ry="1.98"/>
<path fill="#1e52a7" d="
  M 155.42 123.88
  Q 156.58 124.49 154.65 127.44
  Q 151.43 132.37 148.89 137.68
  Q 148.31 138.89 147.77 138.61
  Q 147.23 138.33 147.89 137.16
  Q 150.77 132.03 152.95 126.55
  Q 154.25 123.28 155.42 123.88
  Z"
/>
<path fill="#2568aa" d="
  M 112.46 164.21
  L 99.98 179.92
  L 72.63 163.06
  A 1.81 1.81 0.0 0 1 71.87 160.92
  L 80.90 134.98
  A 1.82 1.82 0.0 0 1 81.08 134.62
  Q 83.37 131.15 85.17 126.22
  Q 85.51 125.29 86.37 124.84
  A 0.55 0.55 0.0 0 1 87.11 125.06
  Q 98.46 145.60 112.46 164.21
  Z"
/>
<ellipse fill="#2568aa" cx="0.00" cy="0.00" transform="translate(48.82,143.52) rotate(-62.7)" rx="1.30" ry="0.95"/>
<path fill="#37a3b8" d="
  M 143.17 143.04
  A 0.86 0.86 0.0 0 1 144.35 143.33
  L 144.42 143.45
  A 3.96 3.35 59.0 0 1 143.59 148.57
  L 143.57 148.58
  A 3.96 3.35 59.0 0 1 138.66 146.91
  L 138.59 146.79
  A 0.86 0.86 0.0 0 1 138.88 145.61
  L 143.17 143.04
  Z"
/>
<path fill="#2e91ba" d="
  M 112.47 145.53
  A 0.70 0.70 0.0 0 1 112.74 146.49
  L 112.67 146.61
  A 3.20 2.56 -60.7 0 1 108.87 148.15
  L 108.71 148.06
  A 3.20 2.56 -60.7 0 1 108.05 144.01
  L 108.12 143.89
  A 0.70 0.70 0.0 0 1 109.07 143.62
  L 112.47 145.53
  Z"
/>
<path fill="#4eb494" d="
  M 193.31 146.53
  L 193.31 153.02
  A 3.62 3.60 74.6 0 1 191.56 156.12
  L 138.74 187.76
  A 0.99 0.99 0.0 0 1 137.52 187.59
  Q 129.00 178.49 125.77 174.52
  Q 116.37 162.94 112.82 158.64
  Q 111.74 157.33 111.20 155.97
  A 0.51 0.51 0.0 0 1 111.66 155.27
  Q 131.40 154.88 142.74 154.62
  Q 147.20 154.52 153.18 153.37
  Q 168.05 150.52 189.60 147.00
  C 190.59 146.83 191.61 146.45 192.72 146.10
  A 0.46 0.45 -8.6 0 1 193.31 146.53
  Z"
/>
<ellipse fill="#45a9a6" cx="0.00" cy="0.00" transform="translate(200.65,155.02) rotate(-105.9)" rx="2.57" ry="2.44"/>
<ellipse fill="#2e91ba" cx="0.00" cy="0.00" transform="translate(52.25,161.89) rotate(-142.8)" rx="1.81" ry="1.31"/>
<path fill="#45a9a6" d="
  M 112.46 164.21
  L 134.86 189.32
  A 0.82 0.82 0.0 0 1 134.69 190.55
  Q 131.27 192.78 125.91 194.26
  A 2.78 2.77 -39.1 0 1 123.93 194.06
  Q 111.36 187.83 99.98 179.92
  L 112.46 164.21
  Z"
/>
<ellipse fill="#37a3b8" cx="0.00" cy="0.00" transform="translate(184.69,170.52) rotate(-75.6)" rx="1.68" ry="1.10"/>
<path fill="#1e52a7" d="
  M 76.72 172.08
  L 79.28 173.56
  A 0.76 0.75 22.3 0 1 79.64 174.40
  Q 79.35 175.57 78.34 176.69
  A 0.76 0.76 0.0 0 1 77.03 176.32
  L 76.35 172.35
  A 0.25 0.25 0.0 0 1 76.72 172.08
  Z"
/>
<ellipse fill="#1e52a7" cx="0.00" cy="0.00" transform="translate(69.91,180.79) rotate(-132.6)" rx="1.52" ry="1.21"/>
<ellipse fill="#2568aa" cx="0.00" cy="0.00" transform="translate(93.64,182.24) rotate(-147.0)" rx="1.95" ry="1.09"/>
<ellipse fill="#45a9a6" cx="0.00" cy="0.00" transform="translate(164.62,184.16) rotate(-63.6)" rx="2.78" ry="1.36"/>
<ellipse fill="#1e52a7" cx="0.00" cy="0.00" transform="translate(94.97,187.74) rotate(-118.8)" rx="1.16" ry="0.72"/>
<path fill="#2568aa" d="
  M 115.03 198.98
  A 0.31 0.31 0.0 0 1 114.71 199.43
  L 113.78 199.29
  A 0.03 0.02 0.0 0 1 113.75 199.27
  Q 112.88 196.63 111.29 194.54
  Q 110.29 193.23 111.47 192.93
  A 0.58 0.57 -21.0 0 1 112.13 193.22
  L 115.03 198.98
  Z"
/>
<path fill="#2e91ba" d="
  M 139.81 196.44
  A 0.28 0.28 0.0 0 1 140.19 196.52
  L 140.29 196.66
  A 2.01 1.88 56.5 0 1 139.83 199.38
  A 2.01 1.88 56.5 0 1 137.15 198.74
  L 137.06 198.60
  A 0.28 0.28 0.0 0 1 137.14 198.21
  L 139.81 196.44
  Z"
/>
</svg>
