<?xml version="1.0" encoding="UTF-8" standalone="no"?>
<!DOCTYPE svg PUBLIC "-//W3C//DTD SVG 1.1//EN" "http://www.w3.org/Graphics/SVG/1.1/DTD/svg11.dtd">
<svg xmlns="http://www.w3.org/2000/svg" version="1.1" viewBox="0.00 0.00 747.00 182.00">
<g stroke-width="2.00" fill="none" stroke-linecap="butt">
<path stroke="#265967" vector-effect="non-scaling-stroke" d="
  M 147.81 22.68
  L 147.81 16.88
  A 2.54 2.53 -73.3 0 0 146.68 14.77
  Q 140.49 10.67 136.81 14.99
  C 134.24 18.02 134.71 21.60 137.39 24.21
  C 139.59 26.36 144.59 24.49 147.36 23.36
  A 0.74 0.74 0.0 0 0 147.81 22.68"
/>
<path stroke="#265967" vector-effect="non-scaling-stroke" d="
  M 157.62 14.83
  A 1.39 1.39 0.0 0 0 156.23 13.44
  A 1.39 1.39 0.0 0 0 154.84 14.83
  A 1.39 1.39 0.0 0 0 156.23 16.22
  A 1.39 1.39 0.0 0 0 157.62 14.83"
/>
<path stroke="#1a395f" vector-effect="non-scaling-stroke" d="
  M 157.5782 22.4518
  A 2.08 0.94 -105.1 0 0 157.2125 24.7049
  A 2.08 0.94 -105.1 0 0 158.6618 26.4682
  A 2.08 0.94 -105.1 0 0 159.0275 24.2151
  A 2.08 0.94 -105.1 0 0 157.5782 22.4518"
/>
<path stroke="#265967" vector-effect="non-scaling-stroke" d="
  M 124.69 32.80
  A 0.25 0.25 0.0 0 0 125.08 32.80
  Q 128.43 28.65 132.94 26.79
  A 0.52 0.52 0.0 0 0 133.02 25.87
  C 131.04 24.61 129.77 26.41 129.03 28.11
  A 1.16 1.04 -11.1 0 1 128.73 28.51
  L 124.51 32.04
  A 0.33 0.33 0.0 0 0 124.46 32.51
  L 124.69 32.80"
/>
<path stroke="#2e6060" vector-effect="non-scaling-stroke" d="
  M 177.3583 28.5609
  A 2.21 1.97 -91.6 0 0 175.4508 30.8250
  A 2.21 1.97 -91.6 0 0 177.4817 32.9791
  A 2.21 1.97 -91.6 0 0 179.3892 30.7150
  A 2.21 1.97 -91.6 0 0 177.3583 28.5609"
/>
<path stroke="#265967" vector-effect="non-scaling-stroke" d="
  M 175.31 83.97
  Q 176.80 82.60 177.17 81.63
  Q 182.78 66.99 188.26 55.46
  A 0.17 0.17 0.0 0 0 188.20 55.24
  Q 164.40 40.10 141.89 29.13
  A 3.11 3.10 45.5 0 0 139.22 29.10
  L 130.87 32.97
  A 0.77 0.77 0.0 0 0 130.73 34.28
  Q 133.77 36.59 136.02 38.77
  Q 144.27 46.75 157.52 59.08
  C 161.26 62.56 166.06 71.30 169.77 76.40
  Q 174.44 82.82 174.67 83.77
  A 0.39 0.39 0.0 0 0 175.31 83.97"
/>
<path stroke="#2e6060" vector-effect="non-scaling-stroke" d="
  M 99.7686 31.2268
  A 1.95 1.28 -120.9 0 0 99.6717 33.5573
  A 1.95 1.28 -120.9 0 0 101.7714 34.5732
  A 1.95 1.28 -120.9 0 0 101.8683 32.2427
  A 1.95 1.28 -120.9 0 0 99.7686 31.2268"
/>
<path stroke="#1a395f" vector-effect="non-scaling-stroke" d="
  M 160.1829 31.7879
  A 2.40 0.71 -154.0 0 0 162.0288 33.4781
  A 2.40 0.71 -154.0 0 0 164.4971 33.8921
  A 2.40 0.71 -154.0 0 0 162.6512 32.2019
  A 2.40 0.71 -154.0 0 0 160.1829 31.7879"
/>
<path stroke="#265967" vector-effect="non-scaling-stroke" d="
  M 150.30 56.79
  Q 146.31 52.83 142.90 49.20
  Q 136.05 41.94 127.22 35.35
  A 0.38 0.38 0.0 0 0 126.82 35.32
  Q 102.62 47.95 84.05 58.55
  Q 81.42 60.05 81.87 63.70
  A 0.61 0.60 86.4 0 0 82.48 64.24
  Q 83.88 64.21 86.25 63.80
  C 96.34 62.06 112.53 58.65 125.38 57.97
  Q 140.77 57.16 150.02 57.45
  A 0.39 0.38 68.1 0 0 150.30 56.79"
/>
<path stroke="#265967" vector-effect="non-scaling-stroke" d="
  M 189.0186 40.6882
  A 1.79 1.22 -2.3 0 0 187.1810 39.5410
  A 1.79 1.22 -2.3 0 0 185.4414 40.8318
  A 1.79 1.22 -2.3 0 0 187.2790 41.9790
  A 1.79 1.22 -2.3 0 0 189.0186 40.6882"
/>
<path stroke="#265967" vector-effect="non-scaling-stroke" d="
  M 91.29 48.84
  A 0.32 0.31 72.9 0 0 91.81 49.12
  Q 93.51 47.58 93.59 44.63
  A 1.05 1.04 2.9 0 0 92.63 43.57
  Q 91.35 43.47 90.71 44.29
  C 90.16 45.00 91.46 47.55 91.29 48.84"
/>
<path stroke="#265967" vector-effect="non-scaling-stroke" d="
  M 81.25 52.74
  L 81.25 49.64
  A 1.22 1.22 0.0 0 0 80.03 48.42
  L 79.26 48.42
  A 3.43 2.71 -0.1 0 0 75.83 51.13
  L 75.83 51.25
  A 3.43 2.71 -0.1 0 0 79.26 53.96
  L 80.03 53.96
  A 1.22 1.22 0.0 0 0 81.25 52.74"
/>
<path stroke="#1a395f" vector-effect="non-scaling-stroke" d="
  M 193.1350 49.0416
  A 1.15 0.83 -159.2 0 0 193.9153 50.2259
  A 1.15 0.83 -159.2 0 0 195.2850 49.8584
  A 1.15 0.83 -159.2 0 0 194.5047 48.6741
  A 1.15 0.83 -159.2 0 0 193.1350 49.0416"
/>
<path stroke="#265967" vector-effect="non-scaling-stroke" d="
  M 197.9392 51.6345
  A 4.94 4.56 -140.3 0 0 198.8272 58.2985
  A 4.94 4.56 -140.3 0 0 205.5408 57.9455
  A 4.94 4.56 -140.3 0 0 204.6528 51.2815
  A 4.94 4.56 -140.3 0 0 197.9392 51.6345"
/>
<path stroke="#2e6060" vector-effect="non-scaling-stroke" d="
  M 196.96 111.14
  A 0.61 0.61 0.0 0 0 197.59 110.43
  Q 197.18 107.75 197.19 105.56
  C 197.30 92.34 197.66 86.43 197.32 75.56
  Q 197.16 70.29 197.75 62.67
  A 3.38 3.38 0.0 0 0 196.75 59.98
  Q 194.15 57.42 191.31 56.35
  A 0.75 0.75 0.0 0 0 190.35 56.76
  Q 185.23 69.25 177.31 85.67
  C 172.47 95.71 165.50 106.27 161.64 114.13
  Q 160.95 115.54 160.78 116.09
  A 0.49 0.49 0.0 0 0 161.28 116.73
  Q 163.71 116.59 167.00 116.00
  Q 184.67 112.84 192.68 111.41
  Q 194.78 111.03 196.96 111.14"
/>
<path stroke="#1a395f" vector-effect="non-scaling-stroke" d="
  M 89.36 122.92
  A 0.89 0.88 -65.3 0 0 90.65 122.44
  Q 94.95 109.66 99.90 99.63
  Q 102.70 93.96 103.00 93.18
  Q 104.15 90.19 106.17 86.78
  Q 111.49 77.85 112.85 75.79
  A 20.95 20.79 -18.9 0 0 114.58 72.29
  L 118.15 63.08
  A 1.18 1.17 -84.1 0 0 116.87 61.50
  L 82.60 67.00
  A 1.16 1.16 0.0 0 0 81.64 68.31
  Q 82.71 76.11 82.36 84.85
  C 81.92 95.93 82.45 103.03 82.22 113.52
  Q 82.15 116.72 82.88 118.60
  A 1.93 1.90 4.7 0 0 83.67 119.52
  L 89.36 122.92"
/>
<path stroke="#265967" vector-effect="non-scaling-stroke" d="
  M 150.62 65.85
  L 154.59 67.43
  A 0.71 0.71 0.0 0 0 155.52 67.03
  L 155.58 66.88
  A 3.36 2.83 -68.3 0 0 154.19 62.71
  L 154.16 62.69
  A 3.36 2.83 -68.3 0 0 150.28 64.77
  L 150.22 64.93
  A 0.71 0.71 0.0 0 0 150.62 65.85"
/>
<path stroke="#265967" vector-effect="non-scaling-stroke" d="
  M 124.92 67.21
  L 128.68 65.63
  A 0.69 0.69 0.0 0 0 129.05 64.73
  L 128.98 64.58
  A 3.22 2.73 67.3 0 0 125.22 62.66
  A 3.22 2.73 67.3 0 0 123.95 66.68
  L 124.01 66.84
  A 0.69 0.69 0.0 0 0 124.92 67.21"
/>
<path stroke="#8a8a8c" vector-effect="non-scaling-stroke" d="
  M 365.6186 87.3982
  A 25.96 24.89 -0.6 0 0 339.3994 62.7814
  A 25.96 24.89 -0.6 0 0 313.7014 87.9418
  A 25.96 24.89 -0.6 0 0 339.9206 112.5586
  A 25.96 24.89 -0.6 0 0 365.6186 87.3982"
/>
<path stroke="#8a8a8c" vector-effect="non-scaling-stroke" d="
  M 294.14 74.63
  L 294.14 110.69
  A 0.88 0.88 0.0 0 0 295.02 111.57
  L 298.83 111.57
  A 0.76 0.76 0.0 0 0 299.59 110.81
  L 299.59 64.36
  A 0.84 0.83 5.4 0 0 298.91 63.54
  Q 296.70 63.10 295.15 63.83
  A 1.59 1.56 -86.2 0 0 294.47 64.44
  L 274.41 98.09
  A 0.55 0.54 -44.6 0 1 273.47 98.09
  L 253.91 64.21
  A 1.05 1.04 -14.7 0 0 253.00 63.68
  L 249.59 63.68
  A 0.69 0.68 90.0 0 0 248.91 64.37
  L 248.91 110.68
  A 0.86 0.85 90.0 0 0 249.76 111.54
  L 253.11 111.54
  A 0.87 0.86 -89.3 0 0 253.97 110.69
  Q 254.29 93.84 254.12 81.51
  Q 254.06 77.76 253.51 75.26
  A 0.53 0.53 0.0 0 1 254.46 74.84
  C 256.09 77.15 257.69 80.71 259.64 83.94
  Q 267.66 97.23 271.62 104.36
  Q 272.26 105.52 273.45 105.91
  A 1.63 1.63 0.0 0 0 275.34 105.19
  L 293.64 74.50
  A 0.27 0.27 0.0 0 1 294.14 74.63"
/>
<path stroke="#8a8a8c" vector-effect="non-scaling-stroke" d="
  M 415.77 101.54
  C 413.72 100.05 412.53 97.22 410.91 95.30
  Q 391.45 72.12 385.04 63.95
  A 1.53 1.53 0.0 0 0 383.85 63.38
  L 381.38 63.38
  A 0.77 0.77 0.0 0 0 380.61 64.15
  L 380.61 110.87
  A 0.76 0.76 0.0 0 0 381.37 111.63
  L 385.14 111.63
  A 0.84 0.84 0.0 0 0 385.98 110.79
  L 385.98 74.44
  A 0.59 0.59 0.0 0 1 387.04 74.08
  C 395.80 85.30 406.48 97.62 415.21 109.89
  C 417.00 112.41 418.02 112.00 420.87 111.88
  A 0.46 0.46 0.0 0 0 421.32 111.42
  L 421.32 64.61
  A 1.07 1.07 0.0 0 0 420.25 63.54
  L 417.35 63.54
  A 1.26 1.26 0.0 0 0 416.09 64.80
  L 416.09 101.38
  A 0.20 0.20 0.0 0 1 415.77 101.54"
/>
<path stroke="#8a8a8c" vector-effect="non-scaling-stroke" d="
  M 506.8515 64.2602
  A 0.77 0.77 0.0 0 0 506.0842 63.4875
  L 501.8442 63.4727
  A 0.77 0.77 0.0 0 0 501.0716 64.2401
  L 500.9085 110.9598
  A 0.77 0.77 0.0 0 0 501.6758 111.7325
  L 505.9158 111.7473
  A 0.77 0.77 0.0 0 0 506.6884 110.9799
  L 506.8515 64.2602"
/>
<path stroke="#8a8a8c" vector-effect="non-scaling-stroke" d="
  M 529.24 63.38
  L 526.29 63.38
  A 1.28 1.28 0.0 0 0 525.01 64.64
  Q 524.91 74.33 524.90 86.92
  C 524.89 93.57 524.74 99.14 527.54 103.77
  C 532.51 112.01 543.10 113.86 551.79 111.63
  C 560.53 109.38 565.64 102.72 565.84 94.14
  Q 566.06 85.05 565.79 64.39
  A 1.05 1.05 0.0 0 0 564.74 63.35
  L 561.56 63.35
  A 1.10 1.10 0.0 0 0 560.46 64.44
  Q 560.39 80.67 560.49 93.22
  Q 560.54 99.85 556.59 103.54
  C 549.91 109.80 536.27 109.42 532.08 101.02
  Q 530.28 97.40 530.43 87.30
  Q 530.59 76.66 530.39 64.51
  A 1.15 1.15 0.0 0 0 529.24 63.38"
/>
<path stroke="#8a8a8c" vector-effect="non-scaling-stroke" d="
  M 629.74 74.40
  L 629.86 110.58
  A 0.88 0.88 0.0 0 0 630.74 111.46
  L 634.56 111.45
  A 0.76 0.76 0.0 0 0 635.32 110.68
  L 635.18 64.08
  A 0.84 0.84 0.0 0 0 634.49 63.26
  Q 632.27 62.83 630.72 63.57
  A 1.60 1.56 -86.4 0 0 630.04 64.18
  L 610.02 98.00
  A 0.55 0.54 -44.8 0 1 609.08 98.00
  L 589.35 64.08
  A 1.05 1.05 0.0 0 0 588.43 63.55
  L 585.01 63.56
  A 0.69 0.68 89.8 0 0 584.33 64.26
  L 584.48 110.71
  A 0.86 0.85 89.8 0 0 585.34 111.57
  L 588.70 111.56
  A 0.87 0.86 -89.5 0 0 589.56 110.71
  Q 589.83 93.80 589.62 81.43
  Q 589.54 77.67 588.98 75.17
  A 0.53 0.53 0.0 0 1 589.94 74.74
  C 591.58 77.05 593.19 80.62 595.16 83.85
  Q 603.25 97.16 607.24 104.30
  Q 607.89 105.46 609.09 105.85
  A 1.63 1.63 0.0 0 0 610.98 105.12
  L 629.24 74.27
  A 0.27 0.27 0.0 0 1 629.74 74.40"
/>
<path stroke="#8a8a8c" vector-effect="non-scaling-stroke" d="
  M 439.76 64.39
  L 439.76 110.83
  A 0.91 0.91 0.0 0 0 440.67 111.74
  L 461.61 111.74
  A 24.89 23.37 -0.0 0 0 486.50 88.37
  L 486.50 86.85
  A 24.89 23.37 0.0 0 0 461.61 63.48
  L 440.67 63.48
  A 0.91 0.91 0.0 0 0 439.76 64.39"
/>
<path stroke="#1a395f" vector-effect="non-scaling-stroke" d="
  M 139.63 64.01
  L 139.61 64.91
  A 0.18 0.18 0.0 0 0 139.79 65.09
  L 140.03 65.10
  A 4.44 0.49 1.2 0 0 144.48 64.70
  L 144.48 64.42
  A 4.44 0.49 1.2 0 0 140.05 63.84
  L 139.81 63.83
  A 0.18 0.18 0.0 0 0 139.63 64.01"
/>
<path stroke="#265967" vector-effect="non-scaling-stroke" d="
  M 208.3429 66.9624
  A 1.38 0.91 -46.9 0 0 206.7356 67.3482
  A 1.38 0.91 -46.9 0 0 206.4571 68.9776
  A 1.38 0.91 -46.9 0 0 208.0644 68.5918
  A 1.38 0.91 -46.9 0 0 208.3429 66.9624"
/>
<path stroke="#1a395f" vector-effect="non-scaling-stroke" d="
  M 202.5686 67.3804
  A 3.27 0.57 -90.9 0 0 202.0501 70.6590
  A 3.27 0.57 -90.9 0 0 202.6714 73.9196
  A 3.27 0.57 -90.9 0 0 203.1899 70.6410
  A 3.27 0.57 -90.9 0 0 202.5686 67.3804"
/>
<path stroke="#1a395f" vector-effect="non-scaling-stroke" d="
  M 159.8324 71.7120
  A 2.52 0.88 -120.2 0 0 160.3394 74.3327
  A 2.52 0.88 -120.2 0 0 162.3676 76.0680
  A 2.52 0.88 -120.2 0 0 161.8606 73.4473
  A 2.52 0.88 -120.2 0 0 159.8324 71.7120"
/>
<path stroke="#2e6060" vector-effect="non-scaling-stroke" d="
  M 74.44 82.30
  L 77.33 78.84
  A 1.05 1.05 0.0 0 0 77.20 77.37
  L 77.10 77.28
  A 3.56 3.24 39.9 0 0 72.29 77.48
  L 72.21 77.58
  A 3.56 3.24 39.9 0 0 72.87 82.34
  L 72.97 82.43
  A 1.05 1.05 0.0 0 0 74.44 82.30"
/>
<path stroke="#1a395f" vector-effect="non-scaling-stroke" d="
  M 162.5872 78.3709
  A 1.62 0.83 -140.1 0 0 163.2976 80.0467
  A 1.62 0.83 -140.1 0 0 165.0728 80.4491
  A 1.62 0.83 -140.1 0 0 164.3624 78.7733
  A 1.62 0.83 -140.1 0 0 162.5872 78.3709"
/>
<path stroke="#265967" vector-effect="non-scaling-stroke" d="
  M 165.94 85.11
  L 166.42 89.93
  A 0.59 0.59 0.0 0 0 167.06 90.46
  L 167.25 90.44
  A 3.74 2.98 -5.6 0 0 170.68 87.11
  L 170.68 87.05
  A 3.74 2.98 -5.6 0 0 166.66 84.45
  L 166.47 84.47
  A 0.59 0.59 0.0 0 0 165.94 85.11"
/>
<path stroke="#1a395f" vector-effect="non-scaling-stroke" d="
  M 114.0794 86.1077
  A 2.43 1.88 -51.9 0 0 111.1006 86.8600
  A 2.43 1.88 -51.9 0 0 111.0806 89.9323
  A 2.43 1.88 -51.9 0 0 114.0594 89.1800
  A 2.43 1.88 -51.9 0 0 114.0794 86.1077"
/>
<path stroke="#1a395f" vector-effect="non-scaling-stroke" d="
  M 212.2318 88.6413
  A 1.86 1.34 -21.4 0 0 210.0111 88.0724
  A 1.86 1.34 -21.4 0 0 208.7682 89.9987
  A 1.86 1.34 -21.4 0 0 210.9889 90.5676
  A 1.86 1.34 -21.4 0 0 212.2318 88.6413"
/>
<path stroke="#265967" vector-effect="non-scaling-stroke" d="
  M 72.86 90.60
  A 0.93 0.93 0.0 0 0 71.93 89.67
  A 0.93 0.93 0.0 0 0 71.00 90.60
  A 0.93 0.93 0.0 0 0 71.93 91.53
  A 0.93 0.93 0.0 0 0 72.86 90.60"
/>
<path stroke="#2e6060" vector-effect="non-scaling-stroke" d="
  M 114.66 137.20
  L 140.17 150.45
  A 1.61 1.61 0.0 0 0 141.90 150.28
  L 146.23 146.82
  A 0.67 0.67 0.0 0 0 146.27 145.80
  Q 135.04 135.28 125.23 123.39"
/>
<path stroke="#1a395f" vector-effect="non-scaling-stroke" d="
  M 125.23 123.39
  C 121.62 119.06 118.18 113.36 115.59 109.54
  Q 110.80 102.47 107.74 96.75
  Q 106.96 95.30 105.93 94.43
  A 0.90 0.90 0.0 0 0 104.52 94.77
  L 92.77 123.44
  A 1.18 1.17 28.2 0 0 93.21 124.88
  Q 97.63 127.77 103.37 130.44
  C 107.13 132.19 110.99 134.84 114.66 137.20"
/>
<path stroke="#3383a6" vector-effect="non-scaling-stroke" d="
  M 125.23 123.39
  L 114.66 137.20"
/>
<path stroke="#1a395f" vector-effect="non-scaling-stroke" d="
  M 114.1206 94.3257
  A 2.49 0.70 -109.7 0 0 114.3010 96.9060
  A 2.49 0.70 -109.7 0 0 115.7994 99.0143
  A 2.49 0.70 -109.7 0 0 115.6190 96.4340
  A 2.49 0.70 -109.7 0 0 114.1206 94.3257"
/>
<path stroke="#1a395f" vector-effect="non-scaling-stroke" d="
  M 116.3242 100.5570
  A 4.02 0.61 -125.0 0 0 118.1303 104.1999
  A 4.02 0.61 -125.0 0 0 120.9358 107.1430
  A 4.02 0.61 -125.0 0 0 119.1297 103.5001
  A 4.02 0.61 -125.0 0 0 116.3242 100.5570"
/>
<path stroke="#306259" vector-effect="non-scaling-stroke" d="
  M 209.6905 101.8398
  A 1.77 1.16 -178.7 0 0 211.4337 103.0397
  A 1.77 1.16 -178.7 0 0 213.2295 101.9202
  A 1.77 1.16 -178.7 0 0 211.4863 100.7203
  A 1.77 1.16 -178.7 0 0 209.6905 101.8398"
/>
<path stroke="#265967" vector-effect="non-scaling-stroke" d="
  M 129.31 112.15
  L 124.13 110.17
  A 0.16 0.16 0.0 0 0 123.92 110.26
  L 123.90 110.34
  A 3.06 2.89 -69.1 0 0 125.50 114.23
  L 125.58 114.26
  A 3.06 2.89 -69.1 0 0 129.37 112.43
  L 129.40 112.35
  A 0.16 0.16 0.0 0 0 129.31 112.15"
/>
<path stroke="#265967" vector-effect="non-scaling-stroke" d="
  M 156.33 114.17
  L 155.85 111.07
  A 0.84 0.84 0.0 0 0 154.89 110.37
  L 154.77 110.39
  A 4.29 2.35 -8.7 0 0 150.88 113.36
  L 150.90 113.48
  A 4.29 2.35 -8.7 0 0 155.50 115.15
  L 155.62 115.13
  A 0.84 0.84 0.0 0 0 156.33 114.17"
/>
<path stroke="#306259" vector-effect="non-scaling-stroke" d="
  M 126.60 120.33
  Q 127.27 121.55 129.44 124.09
  Q 138.06 134.19 148.47 144.25
  A 1.35 1.34 -37.8 0 0 150.06 144.45
  Q 167.39 134.59 188.98 121.23
  Q 193.58 118.39 197.19 114.84
  A 0.88 0.88 0.0 0 0 196.41 113.35
  Q 189.78 114.58 169.75 118.05
  Q 161.40 119.49 156.94 119.74
  C 147.43 120.27 136.77 119.83 126.87 119.86
  A 0.32 0.31 75.3 0 0 126.60 120.33"
/>
<path stroke="#306259" vector-effect="non-scaling-stroke" d="
  M 208.5916 118.0308
  A 5.16 4.78 -12.3 0 0 202.5317 114.4597
  A 5.16 4.78 -12.3 0 0 198.5084 120.2292
  A 5.16 4.78 -12.3 0 0 204.5683 123.8003
  A 5.16 4.78 -12.3 0 0 208.5916 118.0308"
/>
<path stroke="#265967" vector-effect="non-scaling-stroke" d="
  M 78.00 123.33
  L 75.79 121.51
  A 0.44 0.44 0.0 0 0 75.17 121.57
  L 75.01 121.77
  A 2.08 1.82 -50.4 0 0 75.09 124.53
  L 75.16 124.59
  A 2.08 1.82 -50.4 0 0 77.89 124.15
  L 78.06 123.95
  A 0.44 0.44 0.0 0 0 78.00 123.33"
/>
<path stroke="#265967" vector-effect="non-scaling-stroke" d="
  M 190.0797 137.4617
  A 2.11 1.63 -25.8 0 0 187.4706 136.9125
  A 2.11 1.63 -25.8 0 0 186.2803 139.2983
  A 2.11 1.63 -25.8 0 0 188.8894 139.8475
  A 2.11 1.63 -25.8 0 0 190.0797 137.4617"
/>
<path stroke="#2e6060" vector-effect="non-scaling-stroke" d="
  M 90.6447 139.4208
  A 2.03 1.80 -78.5 0 0 88.4761 141.0511
  A 2.03 1.80 -78.5 0 0 89.8353 143.3992
  A 2.03 1.80 -78.5 0 0 92.0039 141.7689
  A 2.03 1.80 -78.5 0 0 90.6447 139.4208"
/>
<path stroke="#1a395f" vector-effect="non-scaling-stroke" d="
  M 111.25 140.98
  Q 112.16 141.28 112.44 141.34
  A 0.48 0.48 0.0 0 0 113.02 140.78
  Q 112.81 139.76 111.76 139.42
  Q 110.70 139.08 109.94 139.79
  A 0.48 0.48 0.0 0 0 110.08 140.58
  Q 110.35 140.69 111.25 140.98"
/>
<path stroke="#265967" vector-effect="non-scaling-stroke" d="
  M 103.94 141.07
  L 100.95 140.53
  A 0.68 0.68 0.0 0 0 100.16 141.08
  L 100.14 141.22
  A 2.76 2.09 -79.8 0 0 101.70 144.30
  L 101.92 144.34
  A 2.76 2.09 -79.8 0 0 104.47 141.99
  L 104.49 141.86
  A 0.68 0.68 0.0 0 0 103.94 141.07"
/>
<path stroke="#1a395f" vector-effect="non-scaling-stroke" d="
  M 171.8154 144.2758
  A 1.86 1.36 -121.6 0 0 171.6317 146.5726
  A 1.86 1.36 -121.6 0 0 173.7646 147.4442
  A 1.86 1.36 -121.6 0 0 173.9483 145.1474
  A 1.86 1.36 -121.6 0 0 171.8154 144.2758"
/>
<path stroke="#1a395f" vector-effect="non-scaling-stroke" d="
  M 119.7393 146.3063
  A 1.90 0.77 -147.4 0 0 120.9251 147.9787
  A 1.90 0.77 -147.4 0 0 122.9407 148.3537
  A 1.90 0.77 -147.4 0 0 121.7549 146.6813
  A 1.90 0.77 -147.4 0 0 119.7393 146.3063"
/>
<path stroke="#1a395f" vector-effect="non-scaling-stroke" d="
  M 128.7252 149.9601
  A 1.06 0.61 -90.8 0 0 128.1301 151.0285
  A 1.06 0.61 -90.8 0 0 128.7548 152.0799
  A 1.06 0.61 -90.8 0 0 129.3499 151.0115
  A 1.06 0.61 -90.8 0 0 128.7252 149.9601"
/>
<path stroke="#306259" vector-effect="non-scaling-stroke" d="
  M 143.53 153.07
  L 136.40 153.78
  A 1.32 1.32 0.0 0 0 135.22 155.23
  L 135.24 155.39
  A 5.22 4.87 84.3 0 0 140.60 160.10
  L 140.66 160.09
  A 5.22 4.87 84.3 0 0 144.99 154.41
  L 144.97 154.25
  A 1.32 1.32 0.0 0 0 143.53 153.07"
/>
<path stroke="#3fa3ae" vector-effect="non-scaling-stroke" d="
  M 175.2299 58.7034
  A 1.45 0.95 -74.4 0 0 173.9250 59.8445
  A 1.45 0.95 -74.4 0 0 174.4501 61.4966
  A 1.45 0.95 -74.4 0 0 175.7550 60.3555
  A 1.45 0.95 -74.4 0 0 175.2299 58.7034"
/>
<path stroke="#3383a6" vector-effect="non-scaling-stroke" d="
  M 90.8807 80.1996
  A 1.57 0.78 -14.4 0 0 89.1660 79.8345
  A 1.57 0.78 -14.4 0 0 87.8393 80.9804
  A 1.57 0.78 -14.4 0 0 89.5540 81.3455
  A 1.57 0.78 -14.4 0 0 90.8807 80.1996"
/>
<path stroke="#8a8a8c" vector-effect="non-scaling-stroke" d="
  M 360.01 87.67
  A 20.34 20.34 0.0 0 0 339.67 67.33
  A 20.34 20.34 0.0 0 0 319.33 87.67
  A 20.34 20.34 0.0 0 0 339.67 108.01
  A 20.34 20.34 0.0 0 0 360.01 87.67"
/>
<path stroke="#8a8a8c" vector-effect="non-scaling-stroke" d="
  M 445.28 68.85
  L 445.14 106.19
  A 0.72 0.72 0.0 0 0 445.86 106.91
  L 461.61 106.97
  A 19.23 18.91 0.2 0 0 480.91 88.12
  L 480.91 87.16
  A 19.23 18.91 0.2 0 0 461.75 68.19
  L 446.00 68.13
  A 0.72 0.72 0.0 0 0 445.28 68.85"
/>
</g>
<path fill="#151519" d="
  M 747.00 0.00
  L 747.00 182.00
  L 0.00 182.00
  L 0.00 0.00
  L 747.00 0.00
  Z
  M 147.81 22.68
  L 147.81 16.88
  A 2.54 2.53 -73.3 0 0 146.68 14.77
  Q 140.49 10.67 136.81 14.99
  C 134.24 18.02 134.71 21.60 137.39 24.21
  C 139.59 26.36 144.59 24.49 147.36 23.36
  A 0.74 0.74 0.0 0 0 147.81 22.68
  Z
  M 157.62 14.83
  A 1.39 1.39 0.0 0 0 156.23 13.44
  A 1.39 1.39 0.0 0 0 154.84 14.83
  A 1.39 1.39 0.0 0 0 156.23 16.22
  A 1.39 1.39 0.0 0 0 157.62 14.83
  Z
  M 157.5782 22.4518
  A 2.08 0.94 -105.1 0 0 157.2125 24.7049
  A 2.08 0.94 -105.1 0 0 158.6618 26.4682
  A 2.08 0.94 -105.1 0 0 159.0275 24.2151
  A 2.08 0.94 -105.1 0 0 157.5782 22.4518
  Z
  M 124.69 32.80
  A 0.25 0.25 0.0 0 0 125.08 32.80
  Q 128.43 28.65 132.94 26.79
  A 0.52 0.52 0.0 0 0 133.02 25.87
  C 131.04 24.61 129.77 26.41 129.03 28.11
  A 1.16 1.04 -11.1 0 1 128.73 28.51
  L 124.51 32.04
  A 0.33 0.33 0.0 0 0 124.46 32.51
  L 124.69 32.80
  Z
  M 177.3583 28.5609
  A 2.21 1.97 -91.6 0 0 175.4508 30.8250
  A 2.21 1.97 -91.6 0 0 177.4817 32.9791
  A 2.21 1.97 -91.6 0 0 179.3892 30.7150
  A 2.21 1.97 -91.6 0 0 177.3583 28.5609
  Z
  M 175.31 83.97
  Q 176.80 82.60 177.17 81.63
  Q 182.78 66.99 188.26 55.46
  A 0.17 0.17 0.0 0 0 188.20 55.24
  Q 164.40 40.10 141.89 29.13
  A 3.11 3.10 45.5 0 0 139.22 29.10
  L 130.87 32.97
  A 0.77 0.77 0.0 0 0 130.73 34.28
  Q 133.77 36.59 136.02 38.77
  Q 144.27 46.75 157.52 59.08
  C 161.26 62.56 166.06 71.30 169.77 76.40
  Q 174.44 82.82 174.67 83.77
  A 0.39 0.39 0.0 0 0 175.31 83.97
  Z
  M 99.7686 31.2268
  A 1.95 1.28 -120.9 0 0 99.6717 33.5573
  A 1.95 1.28 -120.9 0 0 101.7714 34.5732
  A 1.95 1.28 -120.9 0 0 101.8683 32.2427
  A 1.95 1.28 -120.9 0 0 99.7686 31.2268
  Z
  M 160.1829 31.7879
  A 2.40 0.71 -154.0 0 0 162.0288 33.4781
  A 2.40 0.71 -154.0 0 0 164.4971 33.8921
  A 2.40 0.71 -154.0 0 0 162.6512 32.2019
  A 2.40 0.71 -154.0 0 0 160.1829 31.7879
  Z
  M 150.30 56.79
  Q 146.31 52.83 142.90 49.20
  Q 136.05 41.94 127.22 35.35
  A 0.38 0.38 0.0 0 0 126.82 35.32
  Q 102.62 47.95 84.05 58.55
  Q 81.42 60.05 81.87 63.70
  A 0.61 0.60 86.4 0 0 82.48 64.24
  Q 83.88 64.21 86.25 63.80
  C 96.34 62.06 112.53 58.65 125.38 57.97
  Q 140.77 57.16 150.02 57.45
  A 0.39 0.38 68.1 0 0 150.30 56.79
  Z
  M 189.0186 40.6882
  A 1.79 1.22 -2.3 0 0 187.1810 39.5410
  A 1.79 1.22 -2.3 0 0 185.4414 40.8318
  A 1.79 1.22 -2.3 0 0 187.2790 41.9790
  A 1.79 1.22 -2.3 0 0 189.0186 40.6882
  Z
  M 91.29 48.84
  A 0.32 0.31 72.9 0 0 91.81 49.12
  Q 93.51 47.58 93.59 44.63
  A 1.05 1.04 2.9 0 0 92.63 43.57
  Q 91.35 43.47 90.71 44.29
  C 90.16 45.00 91.46 47.55 91.29 48.84
  Z
  M 81.25 52.74
  L 81.25 49.64
  A 1.22 1.22 0.0 0 0 80.03 48.42
  L 79.26 48.42
  A 3.43 2.71 -0.1 0 0 75.83 51.13
  L 75.83 51.25
  A 3.43 2.71 -0.1 0 0 79.26 53.96
  L 80.03 53.96
  A 1.22 1.22 0.0 0 0 81.25 52.74
  Z
  M 193.1350 49.0416
  A 1.15 0.83 -159.2 0 0 193.9153 50.2259
  A 1.15 0.83 -159.2 0 0 195.2850 49.8584
  A 1.15 0.83 -159.2 0 0 194.5047 48.6741
  A 1.15 0.83 -159.2 0 0 193.1350 49.0416
  Z
  M 197.9392 51.6345
  A 4.94 4.56 -140.3 0 0 198.8272 58.2985
  A 4.94 4.56 -140.3 0 0 205.5408 57.9455
  A 4.94 4.56 -140.3 0 0 204.6528 51.2815
  A 4.94 4.56 -140.3 0 0 197.9392 51.6345
  Z
  M 196.96 111.14
  A 0.61 0.61 0.0 0 0 197.59 110.43
  Q 197.18 107.75 197.19 105.56
  C 197.30 92.34 197.66 86.43 197.32 75.56
  Q 197.16 70.29 197.75 62.67
  A 3.38 3.38 0.0 0 0 196.75 59.98
  Q 194.15 57.42 191.31 56.35
  A 0.75 0.75 0.0 0 0 190.35 56.76
  Q 185.23 69.25 177.31 85.67
  C 172.47 95.71 165.50 106.27 161.64 114.13
  Q 160.95 115.54 160.78 116.09
  A 0.49 0.49 0.0 0 0 161.28 116.73
  Q 163.71 116.59 167.00 116.00
  Q 184.67 112.84 192.68 111.41
  Q 194.78 111.03 196.96 111.14
  Z
  M 89.36 122.92
  A 0.89 0.88 -65.3 0 0 90.65 122.44
  Q 94.95 109.66 99.90 99.63
  Q 102.70 93.96 103.00 93.18
  Q 104.15 90.19 106.17 86.78
  Q 111.49 77.85 112.85 75.79
  A 20.95 20.79 -18.9 0 0 114.58 72.29
  L 118.15 63.08
  A 1.18 1.17 -84.1 0 0 116.87 61.50
  L 82.60 67.00
  A 1.16 1.16 0.0 0 0 81.64 68.31
  Q 82.71 76.11 82.36 84.85
  C 81.92 95.93 82.45 103.03 82.22 113.52
  Q 82.15 116.72 82.88 118.60
  A 1.93 1.90 4.7 0 0 83.67 119.52
  L 89.36 122.92
  Z
  M 150.62 65.85
  L 154.59 67.43
  A 0.71 0.71 0.0 0 0 155.52 67.03
  L 155.58 66.88
  A 3.36 2.83 -68.3 0 0 154.19 62.71
  L 154.16 62.69
  A 3.36 2.83 -68.3 0 0 150.28 64.77
  L 150.22 64.93
  A 0.71 0.71 0.0 0 0 150.62 65.85
  Z
  M 124.92 67.21
  L 128.68 65.63
  A 0.69 0.69 0.0 0 0 129.05 64.73
  L 128.98 64.58
  A 3.22 2.73 67.3 0 0 125.22 62.66
  A 3.22 2.73 67.3 0 0 123.95 66.68
  L 124.01 66.84
  A 0.69 0.69 0.0 0 0 124.92 67.21
  Z
  M 365.6186 87.3982
  A 25.96 24.89 -0.6 0 0 339.3994 62.7814
  A 25.96 24.89 -0.6 0 0 313.7014 87.9418
  A 25.96 24.89 -0.6 0 0 339.9206 112.5586
  A 25.96 24.89 -0.6 0 0 365.6186 87.3982
  Z
  M 294.14 74.63
  L 294.14 110.69
  A 0.88 0.88 0.0 0 0 295.02 111.57
  L 298.83 111.57
  A 0.76 0.76 0.0 0 0 299.59 110.81
  L 299.59 64.36
  A 0.84 0.83 5.4 0 0 298.91 63.54
  Q 296.70 63.10 295.15 63.83
  A 1.59 1.56 -86.2 0 0 294.47 64.44
  L 274.41 98.09
  A 0.55 0.54 -44.6 0 1 273.47 98.09
  L 253.91 64.21
  A 1.05 1.04 -14.7 0 0 253.00 63.68
  L 249.59 63.68
  A 0.69 0.68 90.0 0 0 248.91 64.37
  L 248.91 110.68
  A 0.86 0.85 90.0 0 0 249.76 111.54
  L 253.11 111.54
  A 0.87 0.86 -89.3 0 0 253.97 110.69
  Q 254.29 93.84 254.12 81.51
  Q 254.06 77.76 253.51 75.26
  A 0.53 0.53 0.0 0 1 254.46 74.84
  C 256.09 77.15 257.69 80.71 259.64 83.94
  Q 267.66 97.23 271.62 104.36
  Q 272.26 105.52 273.45 105.91
  A 1.63 1.63 0.0 0 0 275.34 105.19
  L 293.64 74.50
  A 0.27 0.27 0.0 0 1 294.14 74.63
  Z
  M 415.77 101.54
  C 413.72 100.05 412.53 97.22 410.91 95.30
  Q 391.45 72.12 385.04 63.95
  A 1.53 1.53 0.0 0 0 383.85 63.38
  L 381.38 63.38
  A 0.77 0.77 0.0 0 0 380.61 64.15
  L 380.61 110.87
  A 0.76 0.76 0.0 0 0 381.37 111.63
  L 385.14 111.63
  A 0.84 0.84 0.0 0 0 385.98 110.79
  L 385.98 74.44
  A 0.59 0.59 0.0 0 1 387.04 74.08
  C 395.80 85.30 406.48 97.62 415.21 109.89
  C 417.00 112.41 418.02 112.00 420.87 111.88
  A 0.46 0.46 0.0 0 0 421.32 111.42
  L 421.32 64.61
  A 1.07 1.07 0.0 0 0 420.25 63.54
  L 417.35 63.54
  A 1.26 1.26 0.0 0 0 416.09 64.80
  L 416.09 101.38
  A 0.20 0.20 0.0 0 1 415.77 101.54
  Z
  M 506.8515 64.2602
  A 0.77 0.77 0.0 0 0 506.0842 63.4875
  L 501.8442 63.4727
  A 0.77 0.77 0.0 0 0 501.0716 64.2401
  L 500.9085 110.9598
  A 0.77 0.77 0.0 0 0 501.6758 111.7325
  L 505.9158 111.7473
  A 0.77 0.77 0.0 0 0 506.6884 110.9799
  L 506.8515 64.2602
  Z
  M 529.24 63.38
  L 526.29 63.38
  A 1.28 1.28 0.0 0 0 525.01 64.64
  Q 524.91 74.33 524.90 86.92
  C 524.89 93.57 524.74 99.14 527.54 103.77
  C 532.51 112.01 543.10 113.86 551.79 111.63
  C 560.53 109.38 565.64 102.72 565.84 94.14
  Q 566.06 85.05 565.79 64.39
  A 1.05 1.05 0.0 0 0 564.74 63.35
  L 561.56 63.35
  A 1.10 1.10 0.0 0 0 560.46 64.44
  Q 560.39 80.67 560.49 93.22
  Q 560.54 99.85 556.59 103.54
  C 549.91 109.80 536.27 109.42 532.08 101.02
  Q 530.28 97.40 530.43 87.30
  Q 530.59 76.66 530.39 64.51
  A 1.15 1.15 0.0 0 0 529.24 63.38
  Z
  M 629.74 74.40
  L 629.86 110.58
  A 0.88 0.88 0.0 0 0 630.74 111.46
  L 634.56 111.45
  A 0.76 0.76 0.0 0 0 635.32 110.68
  L 635.18 64.08
  A 0.84 0.84 0.0 0 0 634.49 63.26
  Q 632.27 62.83 630.72 63.57
  A 1.60 1.56 -86.4 0 0 630.04 64.18
  L 610.02 98.00
  A 0.55 0.54 -44.8 0 1 609.08 98.00
  L 589.35 64.08
  A 1.05 1.05 0.0 0 0 588.43 63.55
  L 585.01 63.56
  A 0.69 0.68 89.8 0 0 584.33 64.26
  L 584.48 110.71
  A 0.86 0.85 89.8 0 0 585.34 111.57
  L 588.70 111.56
  A 0.87 0.86 -89.5 0 0 589.56 110.71
  Q 589.83 93.80 589.62 81.43
  Q 589.54 77.67 588.98 75.17
  A 0.53 0.53 0.0 0 1 589.94 74.74
  C 591.58 77.05 593.19 80.62 595.16 83.85
  Q 603.25 97.16 607.24 104.30
  Q 607.89 105.46 609.09 105.85
  A 1.63 1.63 0.0 0 0 610.98 105.12
  L 629.24 74.27
  A 0.27 0.27 0.0 0 1 629.74 74.40
  Z
  M 439.76 64.39
  L 439.76 110.83
  A 0.91 0.91 0.0 0 0 440.67 111.74
  L 461.61 111.74
  A 24.89 23.37 -0.0 0 0 486.50 88.37
  L 486.50 86.85
  A 24.89 23.37 0.0 0 0 461.61 63.48
  L 440.67 63.48
  A 0.91 0.91 0.0 0 0 439.76 64.39
  Z
  M 139.63 64.01
  L 139.61 64.91
  A 0.18 0.18 0.0 0 0 139.79 65.09
  L 140.03 65.10
  A 4.44 0.49 1.2 0 0 144.48 64.70
  L 144.48 64.42
  A 4.44 0.49 1.2 0 0 140.05 63.84
  L 139.81 63.83
  A 0.18 0.18 0.0 0 0 139.63 64.01
  Z
  M 208.3429 66.9624
  A 1.38 0.91 -46.9 0 0 206.7356 67.3482
  A 1.38 0.91 -46.9 0 0 206.4571 68.9776
  A 1.38 0.91 -46.9 0 0 208.0644 68.5918
  A 1.38 0.91 -46.9 0 0 208.3429 66.9624
  Z
  M 202.5686 67.3804
  A 3.27 0.57 -90.9 0 0 202.0501 70.6590
  A 3.27 0.57 -90.9 0 0 202.6714 73.9196
  A 3.27 0.57 -90.9 0 0 203.1899 70.6410
  A 3.27 0.57 -90.9 0 0 202.5686 67.3804
  Z
  M 159.8324 71.7120
  A 2.52 0.88 -120.2 0 0 160.3394 74.3327
  A 2.52 0.88 -120.2 0 0 162.3676 76.0680
  A 2.52 0.88 -120.2 0 0 161.8606 73.4473
  A 2.52 0.88 -120.2 0 0 159.8324 71.7120
  Z
  M 74.44 82.30
  L 77.33 78.84
  A 1.05 1.05 0.0 0 0 77.20 77.37
  L 77.10 77.28
  A 3.56 3.24 39.9 0 0 72.29 77.48
  L 72.21 77.58
  A 3.56 3.24 39.9 0 0 72.87 82.34
  L 72.97 82.43
  A 1.05 1.05 0.0 0 0 74.44 82.30
  Z
  M 162.5872 78.3709
  A 1.62 0.83 -140.1 0 0 163.2976 80.0467
  A 1.62 0.83 -140.1 0 0 165.0728 80.4491
  A 1.62 0.83 -140.1 0 0 164.3624 78.7733
  A 1.62 0.83 -140.1 0 0 162.5872 78.3709
  Z
  M 165.94 85.11
  L 166.42 89.93
  A 0.59 0.59 0.0 0 0 167.06 90.46
  L 167.25 90.44
  A 3.74 2.98 -5.6 0 0 170.68 87.11
  L 170.68 87.05
  A 3.74 2.98 -5.6 0 0 166.66 84.45
  L 166.47 84.47
  A 0.59 0.59 0.0 0 0 165.94 85.11
  Z
  M 114.0794 86.1077
  A 2.43 1.88 -51.9 0 0 111.1006 86.8600
  A 2.43 1.88 -51.9 0 0 111.0806 89.9323
  A 2.43 1.88 -51.9 0 0 114.0594 89.1800
  A 2.43 1.88 -51.9 0 0 114.0794 86.1077
  Z
  M 212.2318 88.6413
  A 1.86 1.34 -21.4 0 0 210.0111 88.0724
  A 1.86 1.34 -21.4 0 0 208.7682 89.9987
  A 1.86 1.34 -21.4 0 0 210.9889 90.5676
  A 1.86 1.34 -21.4 0 0 212.2318 88.6413
  Z
  M 72.86 90.60
  A 0.93 0.93 0.0 0 0 71.93 89.67
  A 0.93 0.93 0.0 0 0 71.00 90.60
  A 0.93 0.93 0.0 0 0 71.93 91.53
  A 0.93 0.93 0.0 0 0 72.86 90.60
  Z
  M 114.66 137.20
  L 140.17 150.45
  A 1.61 1.61 0.0 0 0 141.90 150.28
  L 146.23 146.82
  A 0.67 0.67 0.0 0 0 146.27 145.80
  Q 135.04 135.28 125.23 123.39
  C 121.62 119.06 118.18 113.36 115.59 109.54
  Q 110.80 102.47 107.74 96.75
  Q 106.96 95.30 105.93 94.43
  A 0.90 0.90 0.0 0 0 104.52 94.77
  L 92.77 123.44
  A 1.18 1.17 28.2 0 0 93.21 124.88
  Q 97.63 127.77 103.37 130.44
  C 107.13 132.19 110.99 134.84 114.66 137.20
  Z
  M 114.1206 94.3257
  A 2.49 0.70 -109.7 0 0 114.3010 96.9060
  A 2.49 0.70 -109.7 0 0 115.7994 99.0143
  A 2.49 0.70 -109.7 0 0 115.6190 96.4340
  A 2.49 0.70 -109.7 0 0 114.1206 94.3257
  Z
  M 116.3242 100.5570
  A 4.02 0.61 -125.0 0 0 118.1303 104.1999
  A 4.02 0.61 -125.0 0 0 120.9358 107.1430
  A 4.02 0.61 -125.0 0 0 119.1297 103.5001
  A 4.02 0.61 -125.0 0 0 116.3242 100.5570
  Z
  M 209.6905 101.8398
  A 1.77 1.16 -178.7 0 0 211.4337 103.0397
  A 1.77 1.16 -178.7 0 0 213.2295 101.9202
  A 1.77 1.16 -178.7 0 0 211.4863 100.7203
  A 1.77 1.16 -178.7 0 0 209.6905 101.8398
  Z
  M 129.31 112.15
  L 124.13 110.17
  A 0.16 0.16 0.0 0 0 123.92 110.26
  L 123.90 110.34
  A 3.06 2.89 -69.1 0 0 125.50 114.23
  L 125.58 114.26
  A 3.06 2.89 -69.1 0 0 129.37 112.43
  L 129.40 112.35
  A 0.16 0.16 0.0 0 0 129.31 112.15
  Z
  M 156.33 114.17
  L 155.85 111.07
  A 0.84 0.84 0.0 0 0 154.89 110.37
  L 154.77 110.39
  A 4.29 2.35 -8.7 0 0 150.88 113.36
  L 150.90 113.48
  A 4.29 2.35 -8.7 0 0 155.50 115.15
  L 155.62 115.13
  A 0.84 0.84 0.0 0 0 156.33 114.17
  Z
  M 126.60 120.33
  Q 127.27 121.55 129.44 124.09
  Q 138.06 134.19 148.47 144.25
  A 1.35 1.34 -37.8 0 0 150.06 144.45
  Q 167.39 134.59 188.98 121.23
  Q 193.58 118.39 197.19 114.84
  A 0.88 0.88 0.0 0 0 196.41 113.35
  Q 189.78 114.58 169.75 118.05
  Q 161.40 119.49 156.94 119.74
  C 147.43 120.27 136.77 119.83 126.87 119.86
  A 0.32 0.31 75.3 0 0 126.60 120.33
  Z
  M 208.5916 118.0308
  A 5.16 4.78 -12.3 0 0 202.5317 114.4597
  A 5.16 4.78 -12.3 0 0 198.5084 120.2292
  A 5.16 4.78 -12.3 0 0 204.5683 123.8003
  A 5.16 4.78 -12.3 0 0 208.5916 118.0308
  Z
  M 78.00 123.33
  L 75.79 121.51
  A 0.44 0.44 0.0 0 0 75.17 121.57
  L 75.01 121.77
  A 2.08 1.82 -50.4 0 0 75.09 124.53
  L 75.16 124.59
  A 2.08 1.82 -50.4 0 0 77.89 124.15
  L 78.06 123.95
  A 0.44 0.44 0.0 0 0 78.00 123.33
  Z
  M 190.0797 137.4617
  A 2.11 1.63 -25.8 0 0 187.4706 136.9125
  A 2.11 1.63 -25.8 0 0 186.2803 139.2983
  A 2.11 1.63 -25.8 0 0 188.8894 139.8475
  A 2.11 1.63 -25.8 0 0 190.0797 137.4617
  Z
  M 90.6447 139.4208
  A 2.03 1.80 -78.5 0 0 88.4761 141.0511
  A 2.03 1.80 -78.5 0 0 89.8353 143.3992
  A 2.03 1.80 -78.5 0 0 92.0039 141.7689
  A 2.03 1.80 -78.5 0 0 90.6447 139.4208
  Z
  M 111.25 140.98
  Q 112.16 141.28 112.44 141.34
  A 0.48 0.48 0.0 0 0 113.02 140.78
  Q 112.81 139.76 111.76 139.42
  Q 110.70 139.08 109.94 139.79
  A 0.48 0.48 0.0 0 0 110.08 140.58
  Q 110.35 140.69 111.25 140.98
  Z
  M 103.94 141.07
  L 100.95 140.53
  A 0.68 0.68 0.0 0 0 100.16 141.08
  L 100.14 141.22
  A 2.76 2.09 -79.8 0 0 101.70 144.30
  L 101.92 144.34
  A 2.76 2.09 -79.8 0 0 104.47 141.99
  L 104.49 141.86
  A 0.68 0.68 0.0 0 0 103.94 141.07
  Z
  M 171.8154 144.2758
  A 1.86 1.36 -121.6 0 0 171.6317 146.5726
  A 1.86 1.36 -121.6 0 0 173.7646 147.4442
  A 1.86 1.36 -121.6 0 0 173.9483 145.1474
  A 1.86 1.36 -121.6 0 0 171.8154 144.2758
  Z
  M 119.7393 146.3063
  A 1.90 0.77 -147.4 0 0 120.9251 147.9787
  A 1.90 0.77 -147.4 0 0 122.9407 148.3537
  A 1.90 0.77 -147.4 0 0 121.7549 146.6813
  A 1.90 0.77 -147.4 0 0 119.7393 146.3063
  Z
  M 128.7252 149.9601
  A 1.06 0.61 -90.8 0 0 128.1301 151.0285
  A 1.06 0.61 -90.8 0 0 128.7548 152.0799
  A 1.06 0.61 -90.8 0 0 129.3499 151.0115
  A 1.06 0.61 -90.8 0 0 128.7252 149.9601
  Z
  M 143.53 153.07
  L 136.40 153.78
  A 1.32 1.32 0.0 0 0 135.22 155.23
  L 135.24 155.39
  A 5.22 4.87 84.3 0 0 140.60 160.10
  L 140.66 160.09
  A 5.22 4.87 84.3 0 0 144.99 154.41
  L 144.97 154.25
  A 1.32 1.32 0.0 0 0 143.53 153.07
  Z"
/>
<path fill="#369cb5" d="
  M 147.36 23.36
  C 144.59 24.49 139.59 26.36 137.39 24.21
  C 134.71 21.60 134.24 18.02 136.81 14.99
  Q 140.49 10.67 146.68 14.77
  A 2.54 2.53 -73.3 0 1 147.81 16.88
  L 147.81 22.68
  A 0.74 0.74 0.0 0 1 147.36 23.36
  Z"
/>
<circle fill="#369cb5" cx="156.23" cy="14.83" r="1.39"/>
<ellipse fill="#1e5ca5" cx="0.00" cy="0.00" transform="translate(158.12,24.46) rotate(-105.1)" rx="2.08" ry="0.94"/>
<path fill="#369cb5" d="
  M 124.51 32.04
  L 128.73 28.51
  A 1.16 1.04 -11.1 0 0 129.03 28.11
  C 129.77 26.41 131.04 24.61 133.02 25.87
  A 0.52 0.52 0.0 0 1 132.94 26.79
  Q 128.43 28.65 125.08 32.80
  A 0.25 0.25 0.0 0 1 124.69 32.80
  L 124.46 32.51
  A 0.33 0.33 0.0 0 1 124.51 32.04
  Z"
/>
<ellipse fill="#47aaa6" cx="0.00" cy="0.00" transform="translate(177.42,30.77) rotate(-91.6)" rx="2.21" ry="1.97"/>
<path fill="#369cb5" d="
  M 174.67 83.77
  Q 174.44 82.82 169.77 76.40
  C 166.06 71.30 161.26 62.56 157.52 59.08
  Q 144.27 46.75 136.02 38.77
  Q 133.77 36.59 130.73 34.28
  A 0.77 0.77 0.0 0 1 130.87 32.97
  L 139.22 29.10
  A 3.11 3.10 45.5 0 1 141.89 29.13
  Q 164.40 40.10 188.20 55.24
  A 0.17 0.17 0.0 0 1 188.26 55.46
  Q 182.78 66.99 177.17 81.63
  Q 176.80 82.60 175.31 83.97
  A 0.39 0.39 0.0 0 1 174.67 83.77
  Z
  M 175.2299 58.7034
  A 1.45 0.95 -74.4 0 0 173.9250 59.8445
  A 1.45 0.95 -74.4 0 0 174.4501 61.4966
  A 1.45 0.95 -74.4 0 0 175.7550 60.3555
  A 1.45 0.95 -74.4 0 0 175.2299 58.7034
  Z"
/>
<ellipse fill="#47aaa6" cx="0.00" cy="0.00" transform="translate(100.77,32.90) rotate(-120.9)" rx="1.95" ry="1.28"/>
<ellipse fill="#1e5ca5" cx="0.00" cy="0.00" transform="translate(162.34,32.84) rotate(-154.0)" rx="2.40" ry="0.71"/>
<path fill="#369cb5" d="
  M 150.30 56.79
  A 0.39 0.38 68.1 0 1 150.02 57.45
  Q 140.77 57.16 125.38 57.97
  C 112.53 58.65 96.34 62.06 86.25 63.80
  Q 83.88 64.21 82.48 64.24
  A 0.61 0.60 86.4 0 1 81.87 63.70
  Q 81.42 60.05 84.05 58.55
  Q 102.62 47.95 126.82 35.32
  A 0.38 0.38 0.0 0 1 127.22 35.35
  Q 136.05 41.94 142.90 49.20
  Q 146.31 52.83 150.30 56.79
  Z"
/>
<ellipse fill="#369cb5" cx="0.00" cy="0.00" transform="translate(187.23,40.76) rotate(-2.3)" rx="1.79" ry="1.22"/>
<path fill="#369cb5" d="
  M 91.29 48.84
  C 91.46 47.55 90.16 45.00 90.71 44.29
  Q 91.35 43.47 92.63 43.57
  A 1.05 1.04 2.9 0 1 93.59 44.63
  Q 93.51 47.58 91.81 49.12
  A 0.32 0.31 72.9 0 1 91.29 48.84
  Z"
/>
<path fill="#369cb5" d="
  M 81.25 52.74
  A 1.22 1.22 0.0 0 1 80.03 53.96
  L 79.26 53.96
  A 3.43 2.71 -0.1 0 1 75.83 51.25
  L 75.83 51.13
  A 3.43 2.71 -0.1 0 1 79.26 48.42
  L 80.03 48.42
  A 1.22 1.22 0.0 0 1 81.25 49.64
  L 81.25 52.74
  Z"
/>
<ellipse fill="#1e5ca5" cx="0.00" cy="0.00" transform="translate(194.21,49.45) rotate(-159.2)" rx="1.15" ry="0.83"/>
<ellipse fill="#369cb5" cx="0.00" cy="0.00" transform="translate(201.74,54.79) rotate(-140.3)" rx="4.94" ry="4.56"/>
<path fill="#47aaa6" d="
  M 196.96 111.14
  Q 194.78 111.03 192.68 111.41
  Q 184.67 112.84 167.00 116.00
  Q 163.71 116.59 161.28 116.73
  A 0.49 0.49 0.0 0 1 160.78 116.09
  Q 160.95 115.54 161.64 114.13
  C 165.50 106.27 172.47 95.71 177.31 85.67
  Q 185.23 69.25 190.35 56.76
  A 0.75 0.75 0.0 0 1 191.31 56.35
  Q 194.15 57.42 196.75 59.98
  A 3.38 3.38 0.0 0 1 197.75 62.67
  Q 197.16 70.29 197.32 75.56
  C 197.66 86.43 197.30 92.34 197.19 105.56
  Q 197.18 107.75 197.59 110.43
  A 0.61 0.61 0.0 0 1 196.96 111.14
  Z"
/>
<ellipse fill="#47aaa6" cx="0.00" cy="0.00" transform="translate(174.84,60.10) rotate(-74.4)" rx="1.45" ry="0.95"/>
<path fill="#1e5ca5" d="
  M 89.36 122.92
  L 83.67 119.52
  A 1.93 1.90 4.7 0 1 82.88 118.60
  Q 82.15 116.72 82.22 113.52
  C 82.45 103.03 81.92 95.93 82.36 84.85
  Q 82.71 76.11 81.64 68.31
  A 1.16 1.16 0.0 0 1 82.60 67.00
  L 116.87 61.50
  A 1.18 1.17 -84.1 0 1 118.15 63.08
  L 114.58 72.29
  A 20.95 20.79 -18.9 0 1 112.85 75.79
  Q 111.49 77.85 106.17 86.78
  Q 104.15 90.19 103.00 93.18
  Q 102.70 93.96 99.90 99.63
  Q 94.95 109.66 90.65 122.44
  A 0.89 0.88 -65.3 0 1 89.36 122.92
  Z
  M 90.8807 80.1996
  A 1.57 0.78 -14.4 0 0 89.1660 79.8345
  A 1.57 0.78 -14.4 0 0 87.8393 80.9804
  A 1.57 0.78 -14.4 0 0 89.5540 81.3455
  A 1.57 0.78 -14.4 0 0 90.8807 80.1996
  Z"
/>
<path fill="#369cb5" d="
  M 150.62 65.85
  A 0.71 0.71 0.0 0 1 150.22 64.93
  L 150.28 64.77
  A 3.36 2.83 -68.3 0 1 154.16 62.69
  L 154.19 62.71
  A 3.36 2.83 -68.3 0 1 155.58 66.88
  L 155.52 67.03
  A 0.71 0.71 0.0 0 1 154.59 67.43
  L 150.62 65.85
  Z"
/>
<path fill="#369cb5" d="
  M 124.92 67.21
  A 0.69 0.69 0.0 0 1 124.01 66.84
  L 123.95 66.68
  A 3.22 2.73 67.3 0 1 125.22 62.66
  A 3.22 2.73 67.3 0 1 128.98 64.58
  L 129.05 64.73
  A 0.69 0.69 0.0 0 1 128.68 65.63
  L 124.92 67.21
  Z"
/>
<path fill="#ffffff" d="
  M 365.6186 87.3982
  A 25.96 24.89 -0.6 0 1 339.9206 112.5586
  A 25.96 24.89 -0.6 0 1 313.7014 87.9418
  A 25.96 24.89 -0.6 0 1 339.3994 62.7814
  A 25.96 24.89 -0.6 0 1 365.6186 87.3982
  Z
  M 360.01 87.67
  A 20.34 20.34 0.0 0 0 339.67 67.33
  A 20.34 20.34 0.0 0 0 319.33 87.67
  A 20.34 20.34 0.0 0 0 339.67 108.01
  A 20.34 20.34 0.0 0 0 360.01 87.67
  Z"
/>
<path fill="#ffffff" d="
  M 294.14 74.63
  A 0.27 0.27 0.0 0 0 293.64 74.50
  L 275.34 105.19
  A 1.63 1.63 0.0 0 1 273.45 105.91
  Q 272.26 105.52 271.62 104.36
  Q 267.66 97.23 259.64 83.94
  C 257.69 80.71 256.09 77.15 254.46 74.84
  A 0.53 0.53 0.0 0 0 253.51 75.26
  Q 254.06 77.76 254.12 81.51
  Q 254.29 93.84 253.97 110.69
  A 0.87 0.86 -89.3 0 1 253.11 111.54
  L 249.76 111.54
  A 0.86 0.85 -90.0 0 1 248.91 110.68
  L 248.91 64.37
  A 0.69 0.68 -90.0 0 1 249.59 63.68
  L 253.00 63.68
  A 1.05 1.04 -14.7 0 1 253.91 64.21
  L 273.47 98.09
  A 0.55 0.54 -44.6 0 0 274.41 98.09
  L 294.47 64.44
  A 1.59 1.56 -86.2 0 1 295.15 63.83
  Q 296.70 63.10 298.91 63.54
  A 0.84 0.83 5.4 0 1 299.59 64.36
  L 299.59 110.81
  A 0.76 0.76 0.0 0 1 298.83 111.57
  L 295.02 111.57
  A 0.88 0.88 0.0 0 1 294.14 110.69
  L 294.14 74.63
  Z"
/>
<path fill="#ffffff" d="
  M 415.77 101.54
  A 0.20 0.20 0.0 0 0 416.09 101.38
  L 416.09 64.80
  A 1.26 1.26 0.0 0 1 417.35 63.54
  L 420.25 63.54
  A 1.07 1.07 0.0 0 1 421.32 64.61
  L 421.32 111.42
  A 0.46 0.46 0.0 0 1 420.87 111.88
  C 418.02 112.00 417.00 112.41 415.21 109.89
  C 406.48 97.62 395.80 85.30 387.04 74.08
  A 0.59 0.59 0.0 0 0 385.98 74.44
  L 385.98 110.79
  A 0.84 0.84 0.0 0 1 385.14 111.63
  L 381.37 111.63
  A 0.76 0.76 0.0 0 1 380.61 110.87
  L 380.61 64.15
  A 0.77 0.77 0.0 0 1 381.38 63.38
  L 383.85 63.38
  A 1.53 1.53 0.0 0 1 385.04 63.95
  Q 391.45 72.12 410.91 95.30
  C 412.53 97.22 413.72 100.05 415.77 101.54
  Z"
/>
<rect fill="#ffffff" x="-2.89" y="-24.13" transform="translate(503.88,87.61) rotate(0.2)" width="5.78" height="48.26" rx="0.77"/>
<path fill="#ffffff" d="
  M 529.24 63.38
  A 1.15 1.15 0.0 0 1 530.39 64.51
  Q 530.59 76.66 530.43 87.30
  Q 530.28 97.40 532.08 101.02
  C 536.27 109.42 549.91 109.80 556.59 103.54
  Q 560.54 99.85 560.49 93.22
  Q 560.39 80.67 560.46 64.44
  A 1.10 1.10 0.0 0 1 561.56 63.35
  L 564.74 63.35
  A 1.05 1.05 0.0 0 1 565.79 64.39
  Q 566.06 85.05 565.84 94.14
  C 565.64 102.72 560.53 109.38 551.79 111.63
  C 543.10 113.86 532.51 112.01 527.54 103.77
  C 524.74 99.14 524.89 93.57 524.90 86.92
  Q 524.91 74.33 525.01 64.64
  A 1.28 1.28 0.0 0 1 526.29 63.38
  L 529.24 63.38
  Z"
/>
<path fill="#ffffff" d="
  M 629.74 74.40
  A 0.27 0.27 0.0 0 0 629.24 74.27
  L 610.98 105.12
  A 1.63 1.63 0.0 0 1 609.09 105.85
  Q 607.89 105.46 607.24 104.30
  Q 603.25 97.16 595.16 83.85
  C 593.19 80.62 591.58 77.05 589.94 74.74
  A 0.53 0.53 0.0 0 0 588.98 75.17
  Q 589.54 77.67 589.62 81.43
  Q 589.83 93.80 589.56 110.71
  A 0.87 0.86 -89.5 0 1 588.70 111.56
  L 585.34 111.57
  A 0.86 0.85 89.8 0 1 584.48 110.71
  L 584.33 64.26
  A 0.69 0.68 89.8 0 1 585.01 63.56
  L 588.43 63.55
  A 1.05 1.05 0.0 0 1 589.35 64.08
  L 609.08 98.00
  A 0.55 0.54 -44.8 0 0 610.02 98.00
  L 630.04 64.18
  A 1.60 1.56 -86.4 0 1 630.72 63.57
  Q 632.27 62.83 634.49 63.26
  A 0.84 0.84 0.0 0 1 635.18 64.08
  L 635.32 110.68
  A 0.76 0.76 0.0 0 1 634.56 111.45
  L 630.74 111.46
  A 0.88 0.88 0.0 0 1 629.86 110.58
  L 629.74 74.40
  Z"
/>
<path fill="#ffffff" d="
  M 439.76 64.39
  A 0.91 0.91 0.0 0 1 440.67 63.48
  L 461.61 63.48
  A 24.89 23.37 0.0 0 1 486.50 86.85
  L 486.50 88.37
  A 24.89 23.37 0.0 0 1 461.61 111.74
  L 440.67 111.74
  A 0.91 0.91 0.0 0 1 439.76 110.83
  L 439.76 64.39
  Z
  M 445.28 68.85
  L 445.14 106.19
  A 0.72 0.72 0.0 0 0 445.86 106.91
  L 461.61 106.97
  A 19.23 18.91 0.2 0 0 480.91 88.12
  L 480.91 87.16
  A 19.23 18.91 0.2 0 0 461.75 68.19
  L 446.00 68.13
  A 0.72 0.72 0.0 0 0 445.28 68.85
  Z"
/>
<path fill="#1e5ca5" d="
  M 139.63 64.01
  A 0.18 0.18 0.0 0 1 139.81 63.83
  L 140.05 63.84
  A 4.44 0.49 1.2 0 1 144.48 64.42
  L 144.48 64.70
  A 4.44 0.49 1.2 0 1 140.03 65.10
  L 139.79 65.09
  A 0.18 0.18 0.0 0 1 139.61 64.91
  L 139.63 64.01
  Z"
/>
<ellipse fill="#369cb5" cx="0.00" cy="0.00" transform="translate(207.40,67.97) rotate(-46.9)" rx="1.38" ry="0.91"/>
<ellipse fill="#1e5ca5" cx="0.00" cy="0.00" transform="translate(202.62,70.65) rotate(-90.9)" rx="3.27" ry="0.57"/>
<circle fill="#151519" cx="339.67" cy="87.67" r="20.34"/>
<path fill="#151519" d="
  M 445.28 68.85
  A 0.72 0.72 0.0 0 1 446.00 68.13
  L 461.75 68.19
  A 19.23 18.91 0.2 0 1 480.91 87.16
  L 480.91 88.12
  A 19.23 18.91 0.2 0 1 461.61 106.97
  L 445.86 106.91
  A 0.72 0.72 0.0 0 1 445.14 106.19
  L 445.28 68.85
  Z"
/>
<ellipse fill="#1e5ca5" cx="0.00" cy="0.00" transform="translate(161.10,73.89) rotate(-120.2)" rx="2.52" ry="0.88"/>
<path fill="#47aaa6" d="
  M 74.44 82.30
  A 1.05 1.05 0.0 0 1 72.97 82.43
  L 72.87 82.34
  A 3.56 3.24 39.9 0 1 72.21 77.58
  L 72.29 77.48
  A 3.56 3.24 39.9 0 1 77.10 77.28
  L 77.20 77.37
  A 1.05 1.05 0.0 0 1 77.33 78.84
  L 74.44 82.30
  Z"
/>
<ellipse fill="#1e5ca5" cx="0.00" cy="0.00" transform="translate(163.83,79.41) rotate(-140.1)" rx="1.62" ry="0.83"/>
<ellipse fill="#47aaa6" cx="0.00" cy="0.00" transform="translate(89.36,80.59) rotate(-14.4)" rx="1.57" ry="0.78"/>
<path fill="#369cb5" d="
  M 165.94 85.11
  A 0.59 0.59 0.0 0 1 166.47 84.47
  L 166.66 84.45
  A 3.74 2.98 -5.6 0 1 170.68 87.05
  L 170.68 87.11
  A 3.74 2.98 -5.6 0 1 167.25 90.44
  L 167.06 90.46
  A 0.59 0.59 0.0 0 1 166.42 89.93
  L 165.94 85.11
  Z"
/>
<ellipse fill="#1e5ca5" cx="0.00" cy="0.00" transform="translate(112.58,88.02) rotate(-51.9)" rx="2.43" ry="1.88"/>
<ellipse fill="#1e5ca5" cx="0.00" cy="0.00" transform="translate(210.50,89.32) rotate(-21.4)" rx="1.86" ry="1.34"/>
<circle fill="#369cb5" cx="71.93" cy="90.60" r="0.93"/>
<path fill="#1e5ca5" d="
  M 125.23 123.39
  L 114.66 137.20
  C 110.99 134.84 107.13 132.19 103.37 130.44
  Q 97.63 127.77 93.21 124.88
  A 1.18 1.17 28.2 0 1 92.77 123.44
  L 104.52 94.77
  A 0.90 0.90 0.0 0 1 105.93 94.43
  Q 106.96 95.30 107.74 96.75
  Q 110.80 102.47 115.59 109.54
  C 118.18 113.36 121.62 119.06 125.23 123.39
  Z"
/>
<ellipse fill="#1e5ca5" cx="0.00" cy="0.00" transform="translate(114.96,96.67) rotate(-109.7)" rx="2.49" ry="0.70"/>
<ellipse fill="#1e5ca5" cx="0.00" cy="0.00" transform="translate(118.63,103.85) rotate(-125.0)" rx="4.02" ry="0.61"/>
<ellipse fill="#4aae98" cx="0.00" cy="0.00" transform="translate(211.46,101.88) rotate(-178.7)" rx="1.77" ry="1.16"/>
<path fill="#369cb5" d="
  M 129.31 112.15
  A 0.16 0.16 0.0 0 1 129.40 112.35
  L 129.37 112.43
  A 3.06 2.89 -69.1 0 1 125.58 114.26
  L 125.50 114.23
  A 3.06 2.89 -69.1 0 1 123.90 110.34
  L 123.92 110.26
  A 0.16 0.16 0.0 0 1 124.13 110.17
  L 129.31 112.15
  Z"
/>
<path fill="#369cb5" d="
  M 156.33 114.17
  A 0.84 0.84 0.0 0 1 155.62 115.13
  L 155.50 115.15
  A 4.29 2.35 -8.7 0 1 150.90 113.48
  L 150.88 113.36
  A 4.29 2.35 -8.7 0 1 154.77 110.39
  L 154.89 110.37
  A 0.84 0.84 0.0 0 1 155.85 111.07
  L 156.33 114.17
  Z"
/>
<path fill="#4aae98" d="
  M 126.87 119.86
  C 136.77 119.83 147.43 120.27 156.94 119.74
  Q 161.40 119.49 169.75 118.05
  Q 189.78 114.58 196.41 113.35
  A 0.88 0.88 0.0 0 1 197.19 114.84
  Q 193.58 118.39 188.98 121.23
  Q 167.39 134.59 150.06 144.45
  A 1.35 1.34 -37.8 0 1 148.47 144.25
  Q 138.06 134.19 129.44 124.09
  Q 127.27 121.55 126.60 120.33
  A 0.32 0.31 75.3 0 1 126.87 119.86
  Z"
/>
<ellipse fill="#4aae98" cx="0.00" cy="0.00" transform="translate(203.55,119.13) rotate(-12.3)" rx="5.16" ry="4.78"/>
<path fill="#369cb5" d="
  M 78.00 123.33
  A 0.44 0.44 0.0 0 1 78.06 123.95
  L 77.89 124.15
  A 2.08 1.82 -50.4 0 1 75.16 124.59
  L 75.09 124.53
  A 2.08 1.82 -50.4 0 1 75.01 121.77
  L 75.17 121.57
  A 0.44 0.44 0.0 0 1 75.79 121.51
  L 78.00 123.33
  Z"
/>
<path fill="#47aaa6" d="
  M 125.23 123.39
  Q 135.04 135.28 146.27 145.80
  A 0.67 0.67 0.0 0 1 146.23 146.82
  L 141.90 150.28
  A 1.61 1.61 0.0 0 1 140.17 150.45
  L 114.66 137.20
  L 125.23 123.39
  Z"
/>
<ellipse fill="#369cb5" cx="0.00" cy="0.00" transform="translate(188.18,138.38) rotate(-25.8)" rx="2.11" ry="1.63"/>
<ellipse fill="#47aaa6" cx="0.00" cy="0.00" transform="translate(90.24,141.41) rotate(-78.5)" rx="2.03" ry="1.80"/>
<path fill="#1e5ca5" d="
  M 111.76 139.42
  Q 112.81 139.76 113.02 140.78
  A 0.48 0.48 0.0 0 1 112.44 141.34
  Q 112.16 141.28 111.25 140.98
  Q 110.35 140.69 110.08 140.58
  A 0.48 0.48 0.0 0 1 109.94 139.79
  Q 110.70 139.08 111.76 139.42
  Z"
/>
<path fill="#369cb5" d="
  M 103.94 141.07
  A 0.68 0.68 0.0 0 1 104.49 141.86
  L 104.47 141.99
  A 2.76 2.09 -79.8 0 1 101.92 144.34
  L 101.70 144.30
  A 2.76 2.09 -79.8 0 1 100.14 141.22
  L 100.16 141.08
  A 0.68 0.68 0.0 0 1 100.95 140.53
  L 103.94 141.07
  Z"
/>
<ellipse fill="#1e5ca5" cx="0.00" cy="0.00" transform="translate(172.79,145.86) rotate(-121.6)" rx="1.86" ry="1.36"/>
<ellipse fill="#1e5ca5" cx="0.00" cy="0.00" transform="translate(121.34,147.33) rotate(-147.4)" rx="1.90" ry="0.77"/>
<ellipse fill="#1e5ca5" cx="0.00" cy="0.00" transform="translate(128.74,151.02) rotate(-90.8)" rx="1.06" ry="0.61"/>
<path fill="#4aae98" d="
  M 143.53 153.07
  A 1.32 1.32 0.0 0 1 144.97 154.25
  L 144.99 154.41
  A 5.22 4.87 84.3 0 1 140.66 160.09
  L 140.60 160.10
  A 5.22 4.87 84.3 0 1 135.24 155.39
  L 135.22 155.23
  A 1.32 1.32 0.0 0 1 136.40 153.78
  L 143.53 153.07
  Z"
/>
</svg>
